<svg id="Capa_1" data-name="Capa 1" xmlns="http://www.w3.org/2000/svg" viewBox="0 0 48 48"><defs><style>.cls-1{fill:#ffb400;}.cls-2,.cls-3{fill:none;stroke:#000;stroke-linecap:round;stroke-linejoin:round;}.cls-3{stroke-width:2px;}</style></defs><title>creatividad_vuelta_vacaciones_promos_ico_48</title><circle class="cls-1" cx="24" cy="24" r="24"/><circle class="cls-2" cx="15.38" cy="15.38" r="1.5"/><polygon class="cls-3" points="37.88 26.63 26.63 37.88 10.13 21.38 10.13 10.13 21.38 10.13 37.88 26.63"/><path d="M30.25,24.24a4.88,4.88,0,0,1-1.37,3.38,4.42,4.42,0,0,1-5.12.92l-1,1-.56-.57.83-.83a3.77,3.77,0,0,1-.49-.42,4.06,4.06,0,0,1-.43-.5l-.83.83-.56-.56,1-1a4.49,4.49,0,0,1,1-5.12A4.74,4.74,0,0,1,26,20l.16,1.35a3.45,3.45,0,0,0-2.5.94,3.11,3.11,0,0,0-.8,3.08l2.2-2.2.56.56L23.2,26.13a4,4,0,0,0,.42.5,2.48,2.48,0,0,0,.51.41l2.4-2.4.57.56-2.2,2.2A3.05,3.05,0,0,0,28,26.6a3.56,3.56,0,0,0,1-2.44Z"/></svg>