<svg id="Capa_1" data-name="Capa 1" xmlns="http://www.w3.org/2000/svg" viewBox="0 0 48 48"><defs><style>.cls-1{fill:#ffb400;}.cls-2{fill:none;stroke:#000;stroke-linecap:round;stroke-linejoin:round;stroke-width:2px;}</style></defs><title>creatividad_vuelta_vacaciones_slots_ico_48</title><circle class="cls-1" cx="24" cy="24" r="24"/><circle class="cls-2" cx="24" cy="24" r="13.88"/><circle cx="24" cy="24" r="1.5"/><polygon points="24.75 23.63 23.25 23.63 23.63 16.13 24.38 16.13 24.75 23.63"/><polygon points="24.38 24.75 24.38 23.25 29.63 23.63 29.63 24.38 24.38 24.75"/><rect x="23.5" y="12" width="1" height="2"/><rect x="23.5" y="34" width="1" height="2"/><rect x="18" y="13.47" width="1" height="2" transform="translate(-4.76 11.19) rotate(-30)"/><rect x="29" y="32.53" width="1" height="2" transform="translate(-12.81 19.24) rotate(-30)"/><rect x="13.97" y="17.5" width="1" height="2" transform="translate(-8.78 21.78) rotate(-60)"/><rect x="33.03" y="28.5" width="1" height="2" transform="translate(-8.78 43.78) rotate(-60)"/><rect x="12.5" y="23" width="1" height="2" transform="translate(-11 37) rotate(-90)"/><rect x="34.5" y="23" width="1" height="2" transform="translate(11 59) rotate(-90)"/><rect x="13.97" y="28.5" width="1" height="2" transform="translate(-3.84 56.78) rotate(-120)"/><rect x="33.03" y="17.5" width="1" height="2" transform="translate(34.27 56.78) rotate(-120)"/><rect x="18" y="32.53" width="1" height="2" transform="translate(17.76 71.81) rotate(-150)"/><rect x="29" y="13.47" width="1" height="2" transform="translate(47.81 41.76) rotate(-150)"/></svg>