<?xml version="1.0" encoding="UTF-8"?>
<svg width="139px" height="20px" viewBox="0 0 139 20" version="1.1" xmlns="http://www.w3.org/2000/svg" xmlns:xlink="http://www.w3.org/1999/xlink">
    <!-- Generator: Sketch 48.2 (47327) - http://www.bohemiancoding.com/sketch -->
    <title>logo_no_ico</title>
    <desc>Created with Sketch.</desc>
    <defs></defs>
    <g id="Page-1" stroke="none" stroke-width="1" fill="none" fill-rule="evenodd">
        <g id="logo_no_ico" fill="#FFFFFF" fill-rule="nonzero">
            <g id="logo_53_">
                <g id="Shape_369_" transform="translate(0.000000, 5.000000)">
                    <path d="M0.4,0.8 L4.8,0.8 L4.8,8.6 C4.8,9.8 5.2,10.4 6.2,10.4 C8,10.4 9,8.8 9,6.8 L9,0.8 L13.4,0.8 L13.4,14 L9.2,14 L9.2,12.8 C9.2,12.4 9.2,12 9.2,12 C8.4,13.4 6.8,14.2 5,14.2 C2.4,14.2 0.4,13 0.4,9.2 L0.4,0.8 Z" id="Shape"></path>
                </g>
                <g id="Shape_368_" transform="translate(15.000000, 0.000000)">
                    <path d="M0.8,0.8 L5.2,0.8 L5.2,13.6 C5.2,14.8 5.4,15.2 6.4,15.2 C6.6,15.2 7,15.2 7,15.2 L7,19 C7,19 6.4,19 5.6,19 C3.2,19 0.8,18.4 0.8,14 L0.8,0.8 Z" id="Shape"></path>
                </g>
                <g id="Shape_367_" transform="translate(23.000000, 5.000000)">
                    <path d="M7.8,5.8 L8,5.6 C8,4.6 7.2,4.2 6,4.2 C4.4,4.2 2.4,5.4 2.4,5.4 L0.8,2.2 C0.8,2.2 3,0.4 6.4,0.4 C10.2,0.4 12.4,2.4 12.4,5.8 L12.4,14 L8.4,14 L8.4,13.2 C8.4,12.8 8.4,12.4 8.4,12.4 C8.4,12.4 7.4,14.4 4.6,14.4 C2.2,14.4 0.2,12.8 0.2,10.2 C0.2,6.2 5.8,5.8 7.8,5.8 Z M6,11 C7.2,11 8.2,9.8 8.2,8.6 L8.2,8.4 L7.8,8.4 C6.4,8.4 4.8,8.8 4.8,10 C4.6,10.4 5,11 6,11 Z" id="Shape"></path>
                </g>
                <g id="Shape_366_" transform="translate(37.000000, 0.000000)">
                    <path d="M0.8,0.8 L5.2,0.8 L5.2,5.8 C5.2,6.4 5.2,7 5.2,7 C5.2,7 6.4,5.6 8.8,5.6 C12.4,5.6 14.8,8.4 14.8,12.6 C14.8,16.8 12.2,19.4 8.6,19.4 C6.2,19.4 5,18 5,18 C5,18 5,18.4 5,18.8 L5,19.2 L0.8,19.2 L0.8,0.8 Z M7.8,15.6 C9.2,15.6 10.4,14.4 10.4,12.4 C10.4,10.4 9.4,9.2 7.8,9.2 C6.4,9.2 5.2,10.2 5.2,12.4 C5.2,14 6,15.6 7.8,15.6 Z" id="Shape"></path>
                </g>
                <g id="Shape_365_" transform="translate(53.000000, 5.000000)">
                    <path d="M7.4,0.6 C11.6,0.6 14.8,3.4 14.8,7.6 C14.8,11.8 11.4,14.4 7.4,14.4 C3.4,14.4 0,11.6 0,7.6 C0,3.2 3.2,0.6 7.4,0.6 Z M7.4,10.6 C9,10.6 10.4,9.4 10.4,7.4 C10.4,5.4 9,4.2 7.4,4.2 C5.8,4.2 4.4,5.4 4.4,7.4 C4.4,9.4 5.8,10.6 7.4,10.6 Z" id="Shape"></path>
                </g>
                <g id="Shape_364_" transform="translate(67.000000, 5.000000)">
                    <path d="M4.8,7.4 L0.6,0.8 L5.6,0.8 L7,3.8 C7.2,4.2 7.4,4.6 7.4,4.6 C7.4,4.6 7.6,4 7.8,3.8 L9.2,0.8 L14.2,0.8 L10,7.4 L14.2,14 L9.4,14 L7.8,11 C7.6,10.8 7.4,10.4 7.4,10.4 C7.4,10.4 7.2,10.8 7,11 L5.4,14 L0.6,14 L4.8,7.4 Z" id="Shape"></path>
                </g>
            </g>
        </g>
    </g>
</svg>
