<svg id="Capa_1" data-name="Capa 1" xmlns="http://www.w3.org/2000/svg" viewBox="0 0 48 48"><defs><style>.cls-1{fill:#ffb400;}.cls-2,.cls-3{fill:none;stroke:#000;stroke-linecap:round;stroke-linejoin:round;}.cls-2{stroke-width:2px;}</style></defs><title>creatividad_vuelta_vacaciones_gourmet_ico_48</title><circle class="cls-1" cx="24" cy="24" r="24"/><path class="cls-2" d="M36,21a6,6,0,0,0-6-6,5.12,5.12,0,0,0-.78.06,6,6,0,0,0-10.44,0A5.12,5.12,0,0,0,18,15a6,6,0,0,0-1.5,11.8V36h15V26.8A6,6,0,0,0,36,21Z"/><line class="cls-3" x1="24" y1="28.5" x2="24" y2="31.75"/><line class="cls-3" x1="27.75" y1="28.5" x2="27.75" y2="31.75"/><line class="cls-3" x1="20.25" y1="28.5" x2="20.25" y2="31.75"/></svg>