<svg id="Capa_1" data-name="Capa 1" xmlns="http://www.w3.org/2000/svg" viewBox="0 0 48 48"><defs><style>.cls-1{fill:#ffb400;}.cls-2,.cls-3{fill:none;stroke:#000;stroke-linecap:round;stroke-linejoin:round;}.cls-2{stroke-width:2px;}</style></defs><title>creatividad_vuelta_vacaciones_gluten_ico_48</title><circle class="cls-1" cx="24" cy="24" r="24"/><line class="cls-2" x1="17.75" y1="31.75" x2="12.75" y2="36.75"/><line class="cls-3" x1="31.08" y1="18.42" x2="17.75" y2="31.75"/><line class="cls-2" x1="34.88" y1="14.63" x2="31.08" y2="18.42"/><line class="cls-2" x1="37.5" y1="18.14" x2="22.99" y2="32.66"/><line class="cls-2" x1="31.36" y1="12" x2="16.84" y2="26.51"/><line class="cls-2" x1="30.59" y1="11.25" x2="30.59" y2="18.91"/><line class="cls-2" x1="38.25" y1="18.91" x2="30.59" y2="18.91"/><line class="cls-3" x1="27.34" y1="14.49" x2="27.34" y2="22.16"/><line class="cls-3" x1="35.01" y1="22.16" x2="27.34" y2="22.16"/><line class="cls-3" x1="24.1" y1="17.74" x2="24.1" y2="25.4"/><line class="cls-3" x1="31.76" y1="25.4" x2="24.1" y2="25.4"/><line class="cls-3" x1="20.86" y1="20.98" x2="20.86" y2="28.64"/><line class="cls-3" x1="28.52" y1="28.64" x2="20.86" y2="28.64"/><line class="cls-2" x1="17.61" y1="24.22" x2="17.61" y2="31.89"/><line class="cls-2" x1="25.28" y1="31.89" x2="17.61" y2="31.89"/></svg>