<?xml version="1.0" encoding="utf-8"?>
<!-- Generator: Adobe Illustrator 22.1.0, SVG Export Plug-In . SVG Version: 6.00 Build 0)  -->
<svg version="1.1" id="Capa_1" xmlns="http://www.w3.org/2000/svg" xmlns:xlink="http://www.w3.org/1999/xlink" x="0px" y="0px"
	 viewBox="0 0 24 24" style="enable-background:new 0 0 24 24;" xml:space="preserve">
<style type="text/css">
	.st0{fill:#FF5D77;}
	.st1{fill:#FFFFFF;}
</style>
<title>android/ico/social/twitter</title>
<desc>Created with Sketch.</desc>
<circle class="st0" cx="12" cy="12" r="10"/>
<path class="st1" d="M7,12c-0.1-2.6,2.2-5.1,4.8-5.1c1.3-0.1,2.6,0.4,3.7,1.3c-0.4,0.5-0.8,0.9-1.3,1.3c-0.9-0.5-2-1-3-0.6
	C9.5,9.4,8.5,11.4,9.1,13c0.5,1.7,2.6,2.7,4.3,1.9c0.9-0.3,1.4-1.1,1.7-1.9c-1,0-1.9,0-2.9,0c0-0.6,0-1.2,0-1.7c1.6,0,3.3,0,4.9,0
	c0.1,1.4-0.1,2.9-1,4.1c-1.3,1.6-3.6,2.1-5.5,1.5C8.4,16.2,7,14.1,7,12z"/>
</svg>
