<?xml version="1.0" encoding="UTF-8"?>
<svg width="26px" height="20px" viewBox="0 0 26 20" version="1.1" xmlns="http://www.w3.org/2000/svg" xmlns:xlink="http://www.w3.org/1999/xlink">
    <!-- Generator: Sketch 48.2 (47327) - http://www.bohemiancoding.com/sketch -->
    <title>ico_pos_1</title>
    <desc>Created with Sketch.</desc>
    <defs>
        <filter x="-1.7%" y="-5.4%" width="103.3%" height="110.7%" filterUnits="objectBoundingBox" id="filter-1">
            <feOffset dx="0" dy="0" in="SourceAlpha" result="shadowOffsetOuter1"></feOffset>
            <feGaussianBlur stdDeviation="2" in="shadowOffsetOuter1" result="shadowBlurOuter1"></feGaussianBlur>
            <feColorMatrix values="0 0 0 0 0   0 0 0 0 0   0 0 0 0 0  0 0 0 0.12 0" type="matrix" in="shadowBlurOuter1" result="shadowMatrixOuter1"></feColorMatrix>
            <feMerge>
                <feMergeNode in="shadowMatrixOuter1"></feMergeNode>
                <feMergeNode in="SourceGraphic"></feMergeNode>
            </feMerge>
        </filter>
        <path d="M3,6 L21,6 L21,8 L3,8 L3,6 L3,6 Z M3,11 L21,11 L21,13 L3,13 L3,11 L3,11 Z M3,18 L3,16 L21,16 L21,18 L3,18 L3,18 Z" id="path-2"></path>
    </defs>
    <g id="home_desk_360" stroke="none" stroke-width="1" fill="none" fill-rule="evenodd" transform="translate(-15.000000, -18.000000)">
        <g id="app-bar" filter="url(#filter-1)">
            <g id="top_bar">
                <g id="android/ico/native/menu" transform="translate(16.000000, 16.000000)">
                    <g id="menu" transform="translate(12.000000, 12.000000) scale(1, -1) translate(-12.000000, -12.000000) ">
                        <polygon id="bounds" points="24 0 0 0 0 24 24 24"></polygon>
                        <mask id="mask-3" fill="white">
                            <use xlink:href="#path-2"></use>
                        </mask>
                        <g id="Shape"></g>
                        <g id="general/palette/color/blanco" mask="url(#mask-3)" fill="#FFFFFF">
                            <rect id="blanco" x="0" y="0" width="24" height="24"></rect>
                        </g>
                    </g>
                </g>
            </g>
        </g>
    </g>
</svg>