<?xml version="1.0" encoding="UTF-8"?>
<svg width="24px" height="24px" viewBox="0 0 24 24" version="1.1" xmlns="http://www.w3.org/2000/svg" xmlns:xlink="http://www.w3.org/1999/xlink">
    <!-- Generator: Sketch 48.2 (47327) - http://www.bohemiancoding.com/sketch -->
    <title>android/ico/social/instagram</title>
    <desc>Created with Sketch.</desc>
    <defs>
        <path d="M0,10 C0,4.47715223 4.47715223,0 10,0 C15.5228478,0 20,4.47715223 20,10 C20,15.5228478 15.5228478,20 10,20 C4.47715223,20 0,15.5228478 0,10 Z M10.0005,4.66666667 C8.55204047,4.66666667 8.3702608,4.67300007 7.80136599,4.69888922 C7.23358229,4.7248895 6.8460227,4.81477932 6.50690806,4.94666958 C6.15612663,5.08289322 5.85856797,5.26511734 5.56212044,5.56167599 C5.26545068,5.85812352 5.08322656,6.15568218 4.94655847,6.5063525 C4.81433487,6.84557825 4.72433393,7.23324896 4.69877811,7.80081043 C4.6733334,8.36970524 4.66666667,8.55159602 4.66666667,10.0000556 C4.66666667,11.4485151 4.67311118,11.6297392 4.69888922,12.198634 C4.72500061,12.7664177 4.81489043,13.1539773 4.94666958,13.4930919 C5.08300434,13.8438734 5.26522846,14.141432 5.5617871,14.4378796 C5.85812352,14.7345493 6.15568218,14.9172179 6.50624138,15.0534415 C6.84557825,15.1853318 7.23324896,15.2752216 7.80092154,15.3012219 C8.36981635,15.327111 8.55148491,15.3334444 9.99983333,15.3334444 C11.448404,15.3334444 11.6296281,15.327111 12.1985229,15.3012219 C12.7663066,15.2752216 13.1543106,15.1853318 13.4936475,15.0534415 C13.8443178,14.9172179 14.141432,14.7345493 14.4377684,14.4378796 C14.7344382,14.141432 14.9166623,13.8438734 15.0533304,13.4932031 C15.1844429,13.1539773 15.2744438,12.7663066 15.3011108,12.1987451 C15.3266666,11.6298503 15.3333333,11.4485151 15.3333333,10.0000556 C15.3333333,8.55159602 15.3266666,8.36981635 15.3011108,7.80092154 C15.2744438,7.23313785 15.1844429,6.84557825 15.0533304,6.50646361 C14.9166623,6.15568218 14.7344382,5.85812352 14.4377684,5.56167599 C14.1410987,5.26500623 13.8444289,5.08278211 13.4933142,4.94666958 C13.1533106,4.81477932 12.7655288,4.7248895 12.1977451,4.69888922 C11.6288503,4.67300007 11.4477373,4.66666667 9.99883332,4.66666667 L10.0005,4.66666667 Z M9.52205058,5.62778779 C9.66405206,5.62756556 9.82249815,5.62778779 10.0005,5.62778779 C11.4245148,5.62778779 11.5932944,5.63289895 12.1556336,5.65845478 C12.675639,5.6822328 12.9578641,5.7691226 13.1458661,5.84212336 C13.3947576,5.93879103 13.5722039,6.05434779 13.7587614,6.2410164 C13.94543,6.42768501 14.0609867,6.60546464 14.1578766,6.85435612 C14.2308774,7.04213586 14.3178783,7.32436102 14.3415452,7.84436643 C14.367101,8.40659451 14.3726567,8.57548516 14.3726567,9.99883332 C14.3726567,11.4221815 14.367101,11.5910721 14.3415452,12.1533002 C14.3177672,12.6733056 14.2308774,12.9555308 14.1578766,13.1433105 C14.061209,13.392202 13.94543,13.5694261 13.7587614,13.7559836 C13.5720928,13.9426522 13.3948687,14.0582089 13.1458661,14.1548766 C12.9580864,14.2282107 12.675639,14.3148783 12.1556336,14.3386563 C11.5934055,14.3642121 11.4245148,14.3697677 10.0005,14.3697677 C8.57637406,14.3697677 8.40759452,14.3642121 7.84536644,14.3386563 C7.32536103,14.3146561 7.04313587,14.2277663 6.8550228,14.1547655 C6.60613131,14.0580978 6.42835168,13.9425411 6.24168307,13.7558725 C6.05501446,13.5692038 5.9394577,13.3918687 5.8425678,13.1428661 C5.76956704,12.9550863 5.68256614,12.6728612 5.65889922,12.1528558 C5.6333434,11.5906277 5.62823224,11.421737 5.62823224,9.99749997 C5.62823224,8.57326292 5.6333434,8.40526117 5.65889922,7.84303309 C5.68267725,7.32302767 5.76956704,7.04080251 5.8425678,6.85280055 C5.93923548,6.60390907 6.05501446,6.42612944 6.24168307,6.23946083 C6.42835168,6.05279222 6.60613131,5.93723546 6.8550228,5.84034556 C7.04302475,5.76701146 7.32536103,5.68034389 7.84536644,5.65645475 C8.33737157,5.6342323 8.52804022,5.62756556 9.52205058,5.62645444 L9.52205058,5.62778779 Z M12.8474185,6.51335257 C12.4940815,6.51335257 12.2074119,6.79968889 12.2074119,7.15313701 C12.2074119,7.50647403 12.4940815,7.79314368 12.8474185,7.79314368 C13.2007556,7.79314368 13.4874252,7.50647403 13.4874252,7.15313701 C13.4874252,6.7998 13.2007556,6.51313035 12.8474185,6.51313035 L12.8474185,6.51335257 Z M10.0005,7.26113814 C8.48792869,7.26113814 7.26158259,8.48748424 7.26158259,10.0000556 C7.26158259,11.5126269 8.48792869,12.7384174 10.0005,12.7384174 C11.5130713,12.7384174 12.738973,11.5126269 12.738973,10.0000556 C12.738973,8.48748424 11.5129602,7.26113814 10.0003889,7.26113814 L10.0005,7.26113814 Z M10.0005,8.22225926 C10.982288,8.22225926 11.7782963,9.01815644 11.7782963,10.0000556 C11.7782963,10.9818436 10.982288,11.7778519 10.0005,11.7778519 C9.01860089,11.7778519 8.22270371,10.9818436 8.22270371,10.0000556 C8.22270371,9.01815644 9.01860089,8.22225926 10.0005,8.22225926 Z" id="path-1"></path>
    </defs>
    <g id="Symbols" stroke="none" stroke-width="1" fill="none" fill-rule="evenodd">
        <g id="android/ico/social/instagram">
            <path d="M0,0 L24,0 L24,24 L0,24 L0,0 Z M0,0 L24,0 L24,24 L0,24 L0,0 Z M0,0 L24,0 L24,24 L0,24 L0,0 Z M0,0 L24,0 L24,24 L0,24 L0,0 Z" id="Shape"></path>
            <g id="Instagram" transform="translate(2.000000, 2.000000)">
                <mask id="mask-2" fill="white">
                    <use xlink:href="#path-1"></use>
                </mask>
                <g id="Combined-Shape"></g>
                <g id="general/palette/color/rosa_500" mask="url(#mask-2)" fill="#FF5D77">
                    <g transform="translate(-2.000000, -2.000000)" id="rosa_500">
                        <rect x="0" y="0" width="24" height="24"></rect>
                    </g>
                </g>
            </g>
        </g>
    </g>
</svg>