<?xml version="1.0" encoding="UTF-8"?>
<svg width="24px" height="24px" viewBox="0 0 24 24" version="1.1" xmlns="http://www.w3.org/2000/svg" xmlns:xlink="http://www.w3.org/1999/xlink">
    <!-- Generator: Sketch 48.2 (47327) - http://www.bohemiancoding.com/sketch -->
    <title>android/ico/social/twitter</title>
    <desc>Created with Sketch.</desc>
    <defs>
        <path d="M2,12 C2,6.47715223 6.47715223,2 12,2 C17.5228478,2 22,6.47715223 22,12 C22,17.5228478 17.5228478,22 12,22 C6.47715223,22 2,17.5228478 2,12 Z M11.7005011,10.1281253 L11.7214855,10.4741478 L11.3717458,10.4317777 C10.0986934,10.269359 8.9865213,9.71854754 8.0422242,8.79346681 L7.58056784,8.33445729 L7.46165636,8.67341817 C7.2098438,9.42901846 7.37072404,10.2269888 7.89533354,10.7636769 C8.17512527,11.0602677 8.11217213,11.1026378 7.6295314,10.9260957 C7.46165636,10.8696022 7.3147657,10.8272321 7.30077611,10.8484171 C7.25181256,10.8978489 7.4196876,11.5404622 7.55258867,11.7946829 C7.7344533,12.1477671 8.10517734,12.4937897 8.51087535,12.6985786 L8.85362022,12.8609973 L8.44792221,12.868059 C8.05621379,12.868059 8.0422242,12.8751207 8.08419296,13.0234161 C8.22408883,13.4824256 8.7766775,13.9696818 9.39221931,14.1815324 L9.82589649,14.3298278 L9.44817765,14.5558017 C8.88859419,14.8806392 8.23108362,15.064243 7.57357305,15.0783664 C7.25880735,15.0854281 7,15.1136748 7,15.1348599 C7,15.2054767 7.85336478,15.6009311 8.34999511,15.7562881 C9.83988608,16.2152977 11.6095688,16.0175705 12.9385795,15.2337234 C13.8828766,14.6758503 14.8271737,13.5671658 15.2678457,12.4937897 C15.5056686,11.9217932 15.7434916,10.8766639 15.7434916,10.3752842 C15.7434916,10.0504467 15.764476,10.0080766 16.1561844,9.61968395 C16.3870126,9.39371003 16.6038512,9.14655106 16.64582,9.07593421 C16.7157679,8.9417622 16.7087731,8.9417622 16.3520386,9.06181084 C15.7574812,9.27366139 15.6735437,9.24541465 15.967325,8.92763883 C16.1841636,8.70166491 16.4429709,8.29208719 16.4429709,8.17203854 C16.4429709,8.15085349 16.338049,8.18616191 16.2191376,8.24971708 C16.0932313,8.32033392 15.8134395,8.4262592 15.6035958,8.48981436 L15.2258769,8.60986301 L14.883132,8.3768274 C14.6942726,8.24971708 14.4284705,8.10848338 14.2885746,8.06611327 C13.9318402,7.96724968 13.3862463,7.98137305 13.0644858,8.09436001 C12.1901366,8.41213583 11.637548,9.23129128 11.7005011,10.1281253 Z" id="path-1"></path>
    </defs>
    <g id="Symbols" stroke="none" stroke-width="1" fill="none" fill-rule="evenodd">
        <g id="android/ico/social/twitter">
            <g id="Twitter">
                <path d="M0,0 L24,0 L24,24 L0,24 L0,0 Z M0,0 L24,0 L24,24 L0,24 L0,0 Z M0,0 L24,0 L24,24 L0,24 L0,0 Z M0,0 L24,0 L24,24 L0,24 L0,0 Z" id="Shape"></path>
                <mask id="mask-2" fill="white">
                    <use xlink:href="#path-1"></use>
                </mask>
                <g id="Combined-Shape"></g>
                <g id="general/palette/color/rosa_500" mask="url(#mask-2)" fill="#FF5D77">
                    <rect id="rosa_500" x="0" y="0" width="24" height="24"></rect>
                </g>
            </g>
        </g>
    </g>
</svg>