<?xml version="1.0" encoding="UTF-8"?>
<svg width="24px" height="24px" viewBox="0 0 24 24" version="1.1" xmlns="http://www.w3.org/2000/svg" xmlns:xlink="http://www.w3.org/1999/xlink">
    <!-- Generator: Sketch 48.2 (47327) - http://www.bohemiancoding.com/sketch -->
    <title>android/ico/ulabox/menu/alimentacion</title>
    <desc>Created with Sketch.</desc>
    <defs>
        <path d="M0,3 C0,1 1,0 2,0 L10,0 C11,0 12,1 12,3 L12,13.5455 C12,14.5152 11.5556,15 10.6667,15 L1.33333,15 C0.444444,15 0,14.5152 0,13.5455 L0,3 Z" id="path-1"></path>
        <polygon id="path-3" points="0 0 12 0 12 7.00200757 0 7.00200757"></polygon>
        <path d="M15,13 C15,14.65685 13.65685,16 12,16 C10.34315,16 9,14.65685 9,13 C9,11.34315 10.34315,10 12,10 C13.65685,10 15,11.34315 15,13 Z" id="path-4"></path>
        <path d="M6,3.5 L6,4.5 C6,5 6,5 6.444444,5 L17.5556,5 C18,5 18,5 18,4.5 L18,3.5 C18,3 18,3 17.5556,3 L6.444444,3 C6,3 6,3 6,3.5 Z" id="path-5"></path>
    </defs>
    <g id="Symbols" stroke="none" stroke-width="1" fill="none" fill-rule="evenodd">
        <g id="android/ico/ulabox/menu/alimentacion">
            <rect id="Rectangle-7" x="0" y="0" width="19" height="19"></rect>
            <g id="Group-2" transform="translate(6.000000, 6.000000)">
                <mask id="mask-2" fill="white">
                    <use xlink:href="#path-1"></use>
                </mask>
                <g id="Path">
                    <use fill="#FFFFFF" fill-rule="evenodd" xlink:href="#path-1"></use>
                    <path stroke="#000000" stroke-width="1" d="M-0.5,3 C-0.5,0.916666667 0.5625,-0.5 2,-0.5 L10,-0.5 C11.4375,-0.5 12.5,0.916666667 12.5,3 L12.5,13.5455 C12.5,14.7820998 11.8419218,15.5 10.6667,15.5 L1.33333,15.5 C0.158114565,15.5 -0.5,14.7820901 -0.5,13.5455 L-0.5,3 Z"></path>
                </g>
                <g id="path62_fill-path" mask="url(#mask-2)">
                    <use fill="#FF5D77" fill-rule="evenodd" xlink:href="#path-3"></use>
                    <path stroke="#000000" stroke-width="1" d="M-0.5,-0.5 L12.5,-0.5 L12.5,7.50200757 L-0.5,7.50200757 L-0.5,-0.5 Z"></path>
                </g>
            </g>
            <g id="path66_fill" fill-rule="nonzero">
                <use fill="#FFB400" fill-rule="evenodd" xlink:href="#path-4"></use>
                <path stroke="#000000" stroke-width="1" d="M15.5,13 C15.5,14.9329924 13.9329924,16.5 12,16.5 C10.0670076,16.5 8.5,14.9329924 8.5,13 C8.5,11.0670076 10.0670076,9.5 12,9.5 C13.9329924,9.5 15.5,11.0670076 15.5,13 Z"></path>
            </g>
            <g id="path60_fill" fill-rule="nonzero">
                <use fill="#BDBDBD" fill-rule="evenodd" xlink:href="#path-5"></use>
                <path stroke="#000000" stroke-width="1" d="M5.5,3.5 C5.5,2.73611721 5.70988176,2.5 6.444444,2.5 L17.5556,2.5 C18.2901306,2.5 18.5,2.73612669 18.5,3.5 L18.5,4.5 C18.5,5.26387331 18.2901306,5.5 17.5556,5.5 L6.444444,5.5 C5.70988176,5.5 5.5,5.26388279 5.5,4.5 L5.5,3.5 Z"></path>
            </g>
        </g>
    </g>
</svg>