<?xml version="1.0" encoding="UTF-8"?>
<svg width="24px" height="24px" viewBox="0 0 24 24" version="1.1" xmlns="http://www.w3.org/2000/svg" xmlns:xlink="http://www.w3.org/1999/xlink">
    <!-- Generator: Sketch 48.2 (47327) - http://www.bohemiancoding.com/sketch -->
    <title>android/ico/ulabox/menu/parafarmacia</title>
    <desc>Created with Sketch.</desc>
    <defs>
        <rect id="path-1" x="0" y="0" width="6" height="18" rx="0.5"></rect>
        <rect id="path-2" x="0" y="0" width="6" height="18" rx="0.5"></rect>
    </defs>
    <g id="Symbols" stroke="none" stroke-width="1" fill="none" fill-rule="evenodd">
        <g id="android/ico/ulabox/menu/parafarmacia">
            <rect id="Rectangle-7" x="0" y="0" width="24" height="24"></rect>
            <g id="Group-3" transform="translate(12.000000, 12.000000) rotate(135.000000) translate(-12.000000, -12.000000) translate(9.000000, 3.000000)">
                <g id="Rectangle-6">
                    <use fill="#FFB400" fill-rule="evenodd" xlink:href="#path-1"></use>
                    <rect stroke="#000000" stroke-width="1" x="-0.5" y="-0.5" width="7" height="19" rx="0.5"></rect>
                </g>
                <rect id="Rectangle" fill="#FFFFFF" x="1" y="6" width="4" height="6"></rect>
                <g id="Group-2" transform="translate(1.000000, 1.000000)" fill="#000000">
                    <circle id="Oval" cx="0.5" cy="0.5" r="1"></circle>
                    <circle id="Oval-Copy" cx="3.5" cy="0.5" r="1"></circle>
                    <circle id="Oval-Copy-3" cx="0.5" cy="2.5" r="1"></circle>
                    <circle id="Oval-Copy-2" cx="3.5" cy="2.5" r="1"></circle>
                </g>
                <g id="Group-2-Copy" transform="translate(1.000000, 14.000000)" fill="#000000">
                    <circle id="Oval" cx="0.5" cy="0.5" r="1"></circle>
                    <circle id="Oval-Copy" cx="3.5" cy="0.5" r="1"></circle>
                    <circle id="Oval-Copy-3" cx="0.5" cy="2.5" r="1"></circle>
                    <circle id="Oval-Copy-2" cx="3.5" cy="2.5" r="1"></circle>
                </g>
            </g>
            <g id="Group-3-Copy" transform="translate(12.000000, 12.000000) rotate(45.000000) translate(-12.000000, -12.000000) translate(9.000000, 3.000000)">
                <g id="Rectangle-6">
                    <use fill="#FF5D77" fill-rule="evenodd" xlink:href="#path-2"></use>
                    <rect stroke="#000000" stroke-width="1" x="-0.5" y="-0.5" width="7" height="19" rx="0.5"></rect>
                </g>
                <rect id="Rectangle" fill="#FFFFFF" x="1" y="6" width="4" height="6"></rect>
                <g id="Group-2" transform="translate(1.000000, 1.000000)" fill="#000000">
                    <circle id="Oval" cx="0.5" cy="0.5" r="1"></circle>
                    <circle id="Oval-Copy" cx="3.5" cy="0.5" r="1"></circle>
                    <circle id="Oval-Copy-3" cx="0.5" cy="2.5" r="1"></circle>
                    <circle id="Oval-Copy-2" cx="3.5" cy="2.5" r="1"></circle>
                </g>
                <g id="Group-2-Copy" transform="translate(1.000000, 14.000000)" fill="#000000">
                    <circle id="Oval" cx="0.5" cy="0.5" r="1"></circle>
                    <circle id="Oval-Copy" cx="3.5" cy="0.5" r="1"></circle>
                    <circle id="Oval-Copy-3" cx="0.5" cy="2.5" r="1"></circle>
                    <circle id="Oval-Copy-2" cx="3.5" cy="2.5" r="1"></circle>
                </g>
            </g>
        </g>
    </g>
</svg>