<?xml version="1.0" encoding="UTF-8"?>
<svg width="24px" height="24px" viewBox="0 0 24 24" version="1.1" xmlns="http://www.w3.org/2000/svg" xmlns:xlink="http://www.w3.org/1999/xlink">
    <!-- Generator: Sketch 48.2 (47327) - http://www.bohemiancoding.com/sketch -->
    <title>ico_menu/congelado</title>
    <desc>Created with Sketch.</desc>
    <defs></defs>
    <g id="Symbols" stroke="none" stroke-width="1" fill="none" fill-rule="evenodd">
        <g id="ico_menu/congelado">
            <rect id="Rectangle-7" x="0" y="0" width="24" height="24"></rect>
            <g id="Group" transform="translate(10.000000, 3.000000)">
                <path d="M2,0 L2,0 C3.1045695,-2.02906125e-16 4,0.8954305 4,2 L4,9 L0,9 L0,2 C-1.3527075e-16,0.8954305 0.8954305,2.02906125e-16 2,0 Z" id="Rectangle-Copy-2" fill="#E0F4FF"></path>
                <rect id="Rectangle-Copy" fill="#FF5D77" x="0" y="12" width="4" height="4" rx="2"></rect>
                <path d="M2,11 L2,13.0003005" id="Path-6" stroke="#FF5D77" stroke-linecap="round" stroke-linejoin="round"></path>
            </g>
            <g id="Group-Copy" transform="translate(8.000000, 3.000000)" stroke="#000000">
                <path d="M6.5,10.2577519 C7.73501414,11.083507 8.5,12.4753458 8.5,14 C8.5,16.4852814 6.48528137,18.5 4,18.5 C1.51471863,18.5 -0.5,16.4852814 -0.5,14 C-0.5,12.4753458 0.264985865,11.083507 1.5,10.2577519 L1.5,2 C1.5,0.619288125 2.61928813,-0.5 4,-0.5 C5.38071187,-0.5 6.5,0.619288125 6.5,2 L6.5,10.2577519 Z" id="Rectangle"></path>
            </g>
            <path d="M12,12 L14,12" id="Path-6-Copy" stroke="#000000" stroke-linecap="round" stroke-linejoin="round"></path>
            <path d="M12,9 L14,9" id="Path-6-Copy-2" stroke="#000000" stroke-linecap="round" stroke-linejoin="round"></path>
            <path d="M12,6 L14,6" id="Path-6-Copy-3" stroke="#000000" stroke-linecap="round" stroke-linejoin="round"></path>
        </g>
    </g>
</svg>