<?xml version="1.0" encoding="UTF-8"?>
<svg width="24px" height="24px" viewBox="0 0 24 24" version="1.1" xmlns="http://www.w3.org/2000/svg" xmlns:xlink="http://www.w3.org/1999/xlink">
    <!-- Generator: Sketch 48.2 (47327) - http://www.bohemiancoding.com/sketch -->
    <title>android/ico/ulabox/menu/bebidas</title>
    <desc>Created with Sketch.</desc>
    <defs>
        <path d="M2,3 C2,4 0,5 0,6 C0,6.66666667 0,10 0,16 C0,16.5522847 0.44771525,17 1,17 L8,17 C8.55228475,17 9,16.5522847 9,16 L9,6 C9,5 7,4 7,3 C7,2.33333333 7,1.66666667 7,1 C7,0.44771525 6.55228475,0 6,0 L3,0 C2.44771525,0 2,0.44771525 2,1 C2,1.66666667 2,2.33333333 2,3 Z" id="path-1"></path>
        <rect id="path-3" x="0" y="0" width="9" height="4" rx="1"></rect>
        <rect id="path-4" x="0" y="10" width="9" height="6"></rect>
        <path d="M0.440568364,1.98951099e-17 L5.55952544,2.22044605e-16 C5.83566781,1.71317496e-16 6.05952544,0.223857625 6.05952544,0.5 C6.05952544,0.518489598 6.05849984,0.536964964 6.05645338,0.55534096 L5.27689021,7.55534096 C5.24869659,7.80850238 5.03468876,8 4.77996227,8 L1.22013153,8 C0.965405045,8 0.751397209,7.80850238 0.723203592,7.55534096 L-0.0563595761,0.55534096 C-0.0869235443,0.280895237 0.110781681,0.0336360276 0.385227405,0.0030720594 C0.403603401,0.00102559514 0.422078766,-1.07627394e-16 0.440568364,-1.11022302e-16 Z" id="path-5"></path>
        <path d="M0.440568364,1.98951099e-17 L5.55952544,2.22044605e-16 C5.83566781,1.71317496e-16 6.05952544,0.223857625 6.05952544,0.5 C6.05952544,0.518489598 6.05849984,0.536964964 6.05645338,0.55534096 L5.27689021,7.55534096 C5.24869659,7.80850238 5.03468876,8 4.77996227,8 L1.22013153,8 C0.965405045,8 0.751397209,7.80850238 0.723203592,7.55534096 L-0.0563595761,0.55534096 C-0.0869235443,0.280895237 0.110781681,0.0336360276 0.385227405,0.0030720594 C0.403603401,0.00102559514 0.422078766,-1.07627394e-16 0.440568364,-1.11022302e-16 Z" id="path-7"></path>
        <rect id="path-9" x="-1" y="0" width="8" height="3"></rect>
    </defs>
    <g id="Symbols" stroke="none" stroke-width="1" fill="none" fill-rule="evenodd">
        <g id="android/ico/ulabox/menu/bebidas">
            <rect id="Rectangle-7" x="0" y="0" width="24" height="24"></rect>
            <g id="botella" transform="translate(12.000000, 2.000000)">
                <g id="Group" transform="translate(0.000000, 2.000000)">
                    <mask id="mask-2" fill="white">
                        <use xlink:href="#path-1"></use>
                    </mask>
                    <g id="Combined-Shape-Copy">
                        <use fill="#FFFFFF" fill-rule="evenodd" xlink:href="#path-1"></use>
                        <path stroke="#000000" stroke-width="1" d="M1.5,3 C1.5,2.5 1.5,2.5 1.5,2 C1.5,1.5 1.5,1.5 1.5,1 C1.5,0.171572875 2.17157288,-0.5 3,-0.5 L6,-0.5 C6.82842712,-0.5 7.5,0.171572875 7.5,1 C7.5,2 7.5,2 7.5,3 C7.5,3.22082632 7.7162007,3.50909392 8.35355339,4.14644661 C9.2162007,5.00909392 9.5,5.38749299 9.5,6 L9.5,16 C9.5,16.8284271 8.82842712,17.5 8,17.5 L1,17.5 C0.171572875,17.5 -0.5,16.8284271 -0.5,16 C-0.5,11.8333333 -0.5,11.8333333 -0.5,9 C-0.5,6.83333333 -0.5,6.83333333 -0.5,6 C-0.5,5.38749299 -0.216200701,5.00909392 0.646446609,4.14644661 C1.2837993,3.50909392 1.5,3.22082632 1.5,3 Z"></path>
                    </g>
                    <rect id="Rectangle-4-Copy" fill="#E0F4FF" mask="url(#mask-2)" x="0" y="2" width="10" height="2"></rect>
                </g>
                <g id="Rectangle-3-Copy">
                    <use fill="#FFB400" fill-rule="evenodd" xlink:href="#path-3"></use>
                    <rect stroke="#000000" stroke-width="1" x="0.5" y="0.5" width="8" height="3" rx="1"></rect>
                </g>
                <g id="Rectangle-4">
                    <use fill="#FF5D77" fill-rule="evenodd" xlink:href="#path-4"></use>
                    <rect stroke="#000000" stroke-width="1" x="-0.5" y="9.5" width="10" height="7"></rect>
                </g>
            </g>
            <g id="vaso" transform="translate(3.000000, 13.000000)">
                <mask id="mask-6" fill="white">
                    <use xlink:href="#path-5"></use>
                </mask>
                <g id="Rectangle">
                    <use fill="#FFFFFF" fill-rule="evenodd" xlink:href="#path-5"></use>
                    <path stroke="#000000" stroke-width="1" d="M0.440568364,-0.5 L5.55952544,-0.5 C6.11181019,-0.5 6.55952544,-0.0522847498 6.55952544,0.5 C6.55849984,0.555454562 6.55849984,0.555454562 6.55338132,0.61068192 L5.77381815,7.61068192 C5.71743092,8.11700476 5.28941525,8.5 4.77996227,8.5 L1.22013153,8.5 C0.710678557,8.5 0.282662885,8.11700476 0.226275651,7.61068192 L-0.553287517,0.61068192 C-0.614415453,0.0617904732 -0.219005002,-0.432727945 0.329886445,-0.493855881 C0.385113802,-0.498974405 0.385113802,-0.498974405 0.440568364,-0.5 Z"></path>
                </g>
                <mask id="mask-8" fill="white">
                    <use xlink:href="#path-7"></use>
                </mask>
                <g id="Rectangle-Copy">
                    <use fill="#FFFFFF" fill-rule="evenodd" xlink:href="#path-7"></use>
                    <path stroke="#000000" stroke-width="1" d="M0.440568364,-0.5 L5.55952544,-0.5 C6.11181019,-0.5 6.55952544,-0.0522847498 6.55952544,0.5 C6.55849984,0.555454562 6.55849984,0.555454562 6.55338132,0.61068192 L5.77381815,7.61068192 C5.71743092,8.11700476 5.28941525,8.5 4.77996227,8.5 L1.22013153,8.5 C0.710678557,8.5 0.282662885,8.11700476 0.226275651,7.61068192 L-0.553287517,0.61068192 C-0.614415453,0.0617904732 -0.219005002,-0.432727945 0.329886445,-0.493855881 C0.385113802,-0.498974405 0.385113802,-0.498974405 0.440568364,-0.5 Z"></path>
                </g>
                <g id="Rectangle-2" mask="url(#mask-8)">
                    <use fill="#E0F4FF" fill-rule="evenodd" xlink:href="#path-9"></use>
                    <rect stroke="#000000" stroke-width="1" x="-1.5" y="-0.5" width="9" height="4"></rect>
                </g>
            </g>
        </g>
    </g>
</svg>