<?xml version="1.0" encoding="UTF-8"?>
<svg width="24px" height="24px" viewBox="0 0 24 24" version="1.1" xmlns="http://www.w3.org/2000/svg" xmlns:xlink="http://www.w3.org/1999/xlink">
    <!-- Generator: Sketch 48.2 (47327) - http://www.bohemiancoding.com/sketch -->
    <title>android/ico/ulabox/menu/basicos</title>
    <desc>Created with Sketch.</desc>
    <defs>
        <path d="M6.51491969,9 L7.41395994,3.21163045 C7.43287714,3.08983425 7.53774141,3 7.66099795,3 L9.71773104,3 C9.84098758,3 9.94585186,3.08983425 9.96476905,3.21163045 L10.8638093,9 L11.5,9 C11.7761424,9 12,9.22385763 12,9.5 L12,17.5 C12,17.7761424 11.7761424,18 11.5,18 L1.5,18 C1.22385763,18 1,17.7761424 1,17.5 L1,9.5 C1,9.22385763 1.22385763,9 1.5,9 L6.51491969,9 Z" id="path-1"></path>
        <polygon id="path-2" points="1 12 12 11 12 15 1 16"></polygon>
        <rect id="path-3" x="0" y="1" width="2" height="2" rx="0.25"></rect>
        <path d="M4.5,4 L4.04734152,5.81063391 C4.01951859,5.92192566 3.91952281,6 3.8048059,6 L3.3201941,6 C3.18212291,6 3.0701941,5.88807119 3.0701941,5.75 C3.0701941,5.72955955 3.07270094,5.70919624 3.07765848,5.68936609 L3.5,4 L2.25,4 C2.11192881,4 2,3.88807119 2,3.75 L2,0.25 C2,0.111928813 2.11192881,2.53632657e-17 2.25,0 L11.75,0 C11.8880712,-2.53632657e-17 12,0.111928813 12,0.25 L12,3.75 C12,3.88807119 11.8880712,4 11.75,4 L4.5,4 Z" id="path-4"></path>
    </defs>
    <g id="Symbols" stroke="none" stroke-width="1" fill="none" fill-rule="evenodd">
        <g id="android/ico/ulabox/menu/basicos">
            <rect id="Rectangle-7" x="0" y="0" width="24" height="24"></rect>
            <g id="Group" transform="translate(6.000000, 3.000000)">
                <g id="Rectangle-3">
                    <use fill="#FFFFFF" fill-rule="evenodd" xlink:href="#path-1"></use>
                    <path stroke="#000000" stroke-width="1" d="M6.08658388,8.5 L6.91988393,3.13489136 C6.9766355,2.76950274 7.29122832,2.5 7.66099795,2.5 L9.71773104,2.5 C10.0875007,2.5 10.4020935,2.76950274 10.4588451,3.13489136 L11.2921451,8.5 L11.5,8.5 C12.0522847,8.5 12.5,8.94771525 12.5,9.5 L12.5,17.5 C12.5,18.0522847 12.0522847,18.5 11.5,18.5 L1.5,18.5 C0.94771525,18.5 0.5,18.0522847 0.5,17.5 L0.5,9.5 C0.5,8.94771525 0.94771525,8.5 1.5,8.5 L6.08658388,8.5 Z"></path>
                </g>
                <g id="Rectangle">
                    <use fill="#FFB400" fill-rule="evenodd" xlink:href="#path-2"></use>
                    <path stroke="#000000" stroke-width="1" d="M0.5,11.5433927 L12.5,10.4524836 L12.5,15.4566073 L0.5,16.5475164 L0.5,11.5433927 Z"></path>
                </g>
                <g id="Path">
                    <use fill="#FF5D77" fill-rule="evenodd" xlink:href="#path-3"></use>
                    <rect stroke="#000000" stroke-width="1" x="-0.5" y="0.5" width="3" height="3" rx="0.25"></rect>
                </g>
                <g id="Rectangle-3-Copy">
                    <use fill="#FF5D77" fill-rule="evenodd" xlink:href="#path-4"></use>
                    <path stroke="#000000" stroke-width="1" d="M4.8903882,4.5 L4.53241277,5.93190172 C4.44894396,6.26577697 4.14895663,6.5 3.8048059,6.5 L3.3201941,6.5 C2.90598054,6.5 2.5701941,6.16421356 2.5701941,5.75 C2.5701941,5.68867864 2.57771461,5.62758873 2.59258723,5.56809828 L2.8596118,4.5 L2.25,4.5 C1.83578644,4.5 1.5,4.16421356 1.5,3.75 L1.5,0.25 C1.5,-0.164213562 1.83578644,-0.5 2.25,-0.5 L11.75,-0.5 C12.1642136,-0.5 12.5,-0.164213562 12.5,0.25 L12.5,3.75 C12.5,4.16421356 12.1642136,4.5 11.75,4.5 L4.8903882,4.5 Z"></path>
                </g>
            </g>
        </g>
    </g>
</svg>