<?xml version="1.0" encoding="UTF-8"?>
<svg width="24px" height="24px" viewBox="0 0 24 24" version="1.1" xmlns="http://www.w3.org/2000/svg" xmlns:xlink="http://www.w3.org/1999/xlink">
    <!-- Generator: Sketch 48.2 (47327) - http://www.bohemiancoding.com/sketch -->
    <title>android/ico/ulabox/menu/mascota</title>
    <desc>Created with Sketch.</desc>
    <defs>
        <path d="M4,10 L5,10 C5,7.790861 6.790861,6 9,6 C11.209139,6 13,7.790861 13,10 L14,10 C15.6568542,10 17,11.3431458 17,13 C17,14.6568542 15.6568542,16 14,16 L4,16 C2.34314575,16 1,14.6568542 1,13 C1,11.3431458 2.34314575,10 4,10 Z" id="path-1"></path>
        <ellipse id="path-2" cx="6" cy="2" rx="1" ry="2"></ellipse>
        <ellipse id="path-3" cx="1" cy="5" rx="1" ry="2"></ellipse>
        <ellipse id="path-4" cx="12" cy="2" rx="1" ry="2"></ellipse>
        <ellipse id="path-5" cx="17" cy="5" rx="1" ry="2"></ellipse>
    </defs>
    <g id="Symbols" stroke="none" stroke-width="1" fill="none" fill-rule="evenodd">
        <g id="android/ico/ulabox/menu/mascota">
            <rect id="Rectangle-7" x="0" y="0" width="24" height="24"></rect>
            <g id="Group-2" transform="translate(3.000000, 4.000000)">
                <g id="Oval">
                    <use fill="#FFB400" fill-rule="evenodd" xlink:href="#path-1"></use>
                    <path stroke="#000000" stroke-width="1" d="M4.52746439,9.5 C4.77618653,7.25002477 6.68372317,5.5 9,5.5 C11.3162768,5.5 13.2238135,7.25002477 13.4725356,9.5 L14,9.5 C15.9329966,9.5 17.5,11.0670034 17.5,13 C17.5,14.9329966 15.9329966,16.5 14,16.5 L4,16.5 C2.06700338,16.5 0.5,14.9329966 0.5,13 C0.5,11.0670034 2.06700338,9.5 4,9.5 L4.52746439,9.5 Z"></path>
                </g>
                <g id="Oval-2">
                    <use fill="#FF5D77" fill-rule="evenodd" xlink:href="#path-2"></use>
                    <ellipse stroke="#000000" stroke-width="1" cx="6" cy="2" rx="1.5" ry="2.5"></ellipse>
                </g>
                <g id="Oval-2-Copy-3">
                    <use fill="#FF5D77" fill-rule="evenodd" xlink:href="#path-3"></use>
                    <ellipse stroke="#000000" stroke-width="1" cx="1" cy="5" rx="1.5" ry="2.5"></ellipse>
                </g>
                <g id="Oval-2-Copy">
                    <use fill="#FF5D77" fill-rule="evenodd" xlink:href="#path-4"></use>
                    <ellipse stroke="#000000" stroke-width="1" cx="12" cy="2" rx="1.5" ry="2.5"></ellipse>
                </g>
                <g id="Oval-2-Copy-2">
                    <use fill="#FF5D77" fill-rule="evenodd" xlink:href="#path-5"></use>
                    <ellipse stroke="#000000" stroke-width="1" cx="17" cy="5" rx="1.5" ry="2.5"></ellipse>
                </g>
            </g>
        </g>
    </g>
</svg>