<?xml version="1.0" encoding="UTF-8"?>
<svg width="24px" height="24px" viewBox="0 0 24 24" version="1.1" xmlns="http://www.w3.org/2000/svg" xmlns:xlink="http://www.w3.org/1999/xlink">
    <!-- Generator: Sketch 48.2 (47327) - http://www.bohemiancoding.com/sketch -->
    <title>android/ico/ulabox/menu/belleza</title>
    <desc>Created with Sketch.</desc>
    <defs>
        <path d="M2.8,0.1 L5.80000013,2.35000009 C5.92590298,2.44442723 6.00000005,2.59262128 6.00000013,2.74999984 L6.00000301,8.00004348 C6.00000315,8.27618586 5.77614564,8.50004359 5.50000326,8.50004373 C5.50000318,8.50004373 5.50000309,8.50004373 5.50000301,8.50004373 L2.5,8.50004348 C2.22385763,8.50004348 2,8.27618586 2,8.00004348 L2,0.5 C2,0.223857625 2.22385763,4.99600361e-16 2.5,4.4408921e-16 C2.60818511,4.30211422e-16 2.71345191,0.0350889359 2.8,0.1 Z" id="path-1"></path>
        <rect id="path-2" x="1" y="5" width="6" height="8" rx="0.5"></rect>
        <rect id="path-3" x="0" y="10" width="8" height="8" rx="0.5"></rect>
    </defs>
    <g id="Symbols" stroke="none" stroke-width="1" fill="none" fill-rule="evenodd">
        <g id="android/ico/ulabox/menu/belleza">
            <rect id="Rectangle-7" x="0" y="0" width="24" height="24"></rect>
            <g id="Group-2" transform="translate(12.000000, 12.000000) scale(-1, 1) translate(-12.000000, -12.000000) translate(8.000000, 3.000000)">
                <g id="Rectangle-5-Copy-2">
                    <use fill="#FF5D77" fill-rule="evenodd" xlink:href="#path-1"></use>
                    <path stroke="#000000" stroke-width="1" d="M3.1,-0.3 L6.10000013,1.95000009 C6.35180583,2.13885437 6.49999997,2.43524247 6.50000013,2.74999957 L6.50000301,8.00004323 C6.50000329,8.55232798 6.05228826,9.00004346 5.50000322,9.00004373 L2.5,9.00004348 C1.94771525,9.00004348 1.5,8.55232823 1.5,8.00004348 L1.5,0.5 C1.5,-0.0522847498 1.94771525,-0.5 2.5,-0.5 C2.71637021,-0.5 2.92690383,-0.429822128 3.1,-0.3 Z"></path>
                </g>
                <g id="Rectangle-5-Copy">
                    <use fill="#FFB400" fill-rule="evenodd" xlink:href="#path-2"></use>
                    <rect stroke="#000000" stroke-width="1" x="0.5" y="4.5" width="7" height="9" rx="0.5"></rect>
                </g>
                <g id="Rectangle-5">
                    <use fill="#D8D8D8" fill-rule="evenodd" xlink:href="#path-3"></use>
                    <rect stroke="#000000" stroke-width="1" x="-0.5" y="9.5" width="9" height="9" rx="0.5"></rect>
                </g>
            </g>
        </g>
    </g>
</svg>