<?xml version="1.0" encoding="UTF-8"?>
<svg width="24px" height="24px" viewBox="0 0 24 24" version="1.1" xmlns="http://www.w3.org/2000/svg" xmlns:xlink="http://www.w3.org/1999/xlink">
    <!-- Generator: Sketch 48.2 (47327) - http://www.bohemiancoding.com/sketch -->
    <title>android/ico/ulabox/menu/fresco</title>
    <desc>Created with Sketch.</desc>
    <defs></defs>
    <g id="Symbols" stroke="none" stroke-width="1" fill="none" fill-rule="evenodd">
        <g id="android/ico/ulabox/menu/fresco">
            <rect id="Rectangle-7" x="0" y="0" width="24" height="24"></rect>
            <g id="ic_frescos" transform="translate(3.000000, 3.000000)" fill-rule="nonzero">
                <path d="M5,4 C7.4,4 8.66667,5.66667 9,6 C9.33333,5.66667 10.6,4 13,4 C16,4 18,6 18,10 C18,14 13,20 9,16 C5,20 0,14 0,10 C0,6 2,4 5,4 Z" id="path55_fill" stroke="#000000" fill="#F95D75"></path>
                <g id="Vector-18" transform="translate(8.000000, 0.000000)" fill="#000000">
                    <g id="path57_stroke-link" transform="translate(0.000000, 0.500000)">
                        <path d="M5,1.5 C5.27614,1.5 5.5,1.276142 5.5,1 C5.5,0.723858 5.27614,0.5 5,0.5 L5,1.5 Z M0.5,4.5 C0.5,4.77614 0.723858,5 1,5 C1.276142,5 1.5,4.77614 1.5,4.5 L0.5,4.5 Z M5,0.5 C2.81309,0.5 0.5,2.14237 0.5,4.5 L1.5,4.5 C1.5,2.85763 3.18691,1.5 5,1.5 L5,0.5 Z" id="path57_stroke"></path>
                    </g>
                </g>
            </g>
        </g>
    </g>
</svg>