<?xml version="1.0" encoding="UTF-8"?>
<svg width="24px" height="24px" viewBox="0 0 24 24" version="1.1" xmlns="http://www.w3.org/2000/svg" xmlns:xlink="http://www.w3.org/1999/xlink">
    <!-- Generator: Sketch 48.2 (47327) - http://www.bohemiancoding.com/sketch -->
    <title>android/ico/ulabox/menu/mail</title>
    <desc>Created with Sketch.</desc>
    <defs>
        <path d="M2.5,0 L13.5,0 C13.7761424,-5.07265313e-17 14,0.223857625 14,0.5 L14,10.5 C14,10.7761424 13.7761424,11 13.5,11 L2.5,11 C2.22385763,11 2,10.7761424 2,10.5 L2,0.5 C2,0.223857625 2.22385763,5.07265313e-17 2.5,0 Z" id="path-1"></path>
        <path d="M0.81725305,6.10351729 L7.68274695,11.7395597 C7.86715899,11.8909477 8.13284101,11.8909477 8.31725305,11.7395597 L15.1827469,6.10351729 C15.3961823,5.92830327 15.7112449,5.9592878 15.8864589,6.17272317 C15.959873,6.26215185 16,6.37427352 16,6.48997622 L16,17.5 C16,17.7761424 15.7761424,18 15.5,18 L0.5,18 C0.223857625,18 9.21996107e-16,17.7761424 8.8817842e-16,17.5 L1.44328993e-15,6.48997622 C1.40947224e-15,6.21383384 0.223857625,5.98997622 0.5,5.98997622 C0.615702698,5.98997622 0.727824369,6.03010322 0.81725305,6.10351729 Z" id="path-2"></path>
    </defs>
    <g id="Symbols" stroke="none" stroke-width="1" fill="none" fill-rule="evenodd">
        <g id="android/ico/ulabox/menu/mail">
            <rect id="Rectangle-7" x="0" y="0" width="24" height="24"></rect>
            <g id="Group-3" transform="translate(4.000000, 3.000000)">
                <g id="Rectangle-6-Copy-2">
                    <use fill="#FFFFFF" fill-rule="evenodd" xlink:href="#path-1"></use>
                    <path stroke="#000000" stroke-width="1" d="M2.5,-0.5 L13.5,-0.5 C14.0522847,-0.5 14.5,-0.0522847498 14.5,0.5 L14.5,10.5 C14.5,11.0522847 14.0522847,11.5 13.5,11.5 L2.5,11.5 C1.94771525,11.5 1.5,11.0522847 1.5,10.5 L1.5,0.5 C1.5,-0.0522847498 1.94771525,-0.5 2.5,-0.5 Z"></path>
                </g>
                <path d="M4.5,5 L11.5,5 C11.7761424,5 12,5.22385763 12,5.5 L12,5.5 C12,5.77614237 11.7761424,6 11.5,6 L4.5,6 C4.22385763,6 4,5.77614237 4,5.5 L4,5.5 C4,5.22385763 4.22385763,5 4.5,5 Z" id="Rectangle-6-Copy-3" fill="#000000"></path>
                <path d="M3.5,2 L12.5,2 C12.7761424,2 13,2.22385763 13,2.5 L13,2.5 C13,2.77614237 12.7761424,3 12.5,3 L3.5,3 C3.22385763,3 3,2.77614237 3,2.5 L3,2.5 C3,2.22385763 3.22385763,2 3.5,2 Z" id="Rectangle-6-Copy" fill="#000000"></path>
                <g id="Rectangle-6">
                    <use fill="#FFB400" fill-rule="evenodd" xlink:href="#path-2"></use>
                    <path stroke="#000000" stroke-width="1" d="M1.1345061,5.71705836 L8,11.3531007 L14.8654939,5.71705836 C15.2923646,5.36663032 15.9224898,5.42859937 16.2729179,5.85547012 C16.419746,6.03432748 16.5,6.25857082 16.5,6.48997622 L16.5,17.5 C16.5,18.0522847 16.0522847,18.5 15.5,18.5 L0.5,18.5 C-0.0522847498,18.5 -0.5,18.0522847 -0.5,17.5 L-0.5,6.48997622 C-0.5,5.93769147 -0.0522847498,5.48997622 0.5,5.48997622 C0.731405396,5.48997622 0.955648738,5.57023023 1.1345061,5.71705836 Z"></path>
                </g>
            </g>
        </g>
    </g>
</svg>