<?xml version="1.0" encoding="UTF-8"?>
<svg width="24px" height="24px" viewBox="0 0 24 24" version="1.1" xmlns="http://www.w3.org/2000/svg" xmlns:xlink="http://www.w3.org/1999/xlink">
    <!-- Generator: Sketch 48.2 (47327) - http://www.bohemiancoding.com/sketch -->
    <title>android/ico/ulabox/menu/faq</title>
    <desc>Created with Sketch.</desc>
    <defs>
        <path d="M5,9 L2.45,12.4 C2.36715729,12.5104569 2.21045695,12.5328427 2.1,12.45 C2.03704854,12.4027864 2,12.3286893 2,12.25 L2,9 L0.5,9 C0.223857625,9 3.38176876e-17,8.77614237 0,8.5 L0,0.5 C-3.38176876e-17,0.223857625 0.223857625,5.07265313e-17 0.5,0 L11.5,0 C11.7761424,-5.07265313e-17 12,0.223857625 12,0.5 L12,8.5 C12,8.77614237 11.7761424,9 11.5,9 L5,9 Z" id="path-1"></path>
        <path d="M5,7 L2.45,10.4 C2.36715729,10.5104569 2.21045695,10.5328427 2.1,10.45 C2.03704854,10.4027864 2,10.3286893 2,10.25 L2,7 L0.5,7 C0.223857625,7 3.38176876e-17,6.77614237 0,6.5 L0,0.5 C-3.38176876e-17,0.223857625 0.223857625,5.07265313e-17 0.5,0 L9.5,0 C9.77614237,-5.07265313e-17 10,0.223857625 10,0.5 L10,6.5 C10,6.77614237 9.77614237,7 9.5,7 L5,7 Z" id="path-2"></path>
    </defs>
    <g id="Symbols" stroke="none" stroke-width="1" fill="none" fill-rule="evenodd">
        <g id="android/ico/ulabox/menu/faq">
            <rect id="Rectangle-7" x="0" y="0" width="24" height="24"></rect>
            <g id="Group-3" transform="translate(15.000000, 10.000000) scale(-1, 1) translate(-15.000000, -10.000000) translate(9.000000, 4.000000)">
                <g id="Rectangle-6-Copy-2">
                    <use fill="#FFB400" fill-rule="evenodd" xlink:href="#path-1"></use>
                    <path stroke="#000000" stroke-width="1" d="M5.25,9.5 L2.85,12.7 C2.60147186,13.0313708 2.13137085,13.0985281 1.8,12.85 C1.61114562,12.7083592 1.5,12.486068 1.5,12.25 L1.5,9.5 L0.5,9.5 C-0.0522847498,9.5 -0.5,9.05228475 -0.5,8.5 L-0.5,0.5 C-0.5,-0.0522847498 -0.0522847498,-0.5 0.5,-0.5 L11.5,-0.5 C12.0522847,-0.5 12.5,-0.0522847498 12.5,0.5 L12.5,8.5 C12.5,9.05228475 12.0522847,9.5 11.5,9.5 L5.25,9.5 Z"></path>
                </g>
                <path d="M1.5,1 L10.5,1 C10.7761424,1 11,1.22385763 11,1.5 L11,1.5 C11,1.77614237 10.7761424,2 10.5,2 L1.5,2 C1.22385763,2 1,1.77614237 1,1.5 L1,1.5 C1,1.22385763 1.22385763,1 1.5,1 Z" id="Rectangle-6-Copy-5" fill="#000000"></path>
                <path d="M1.5,3 L10.5,3 C10.7761424,3 11,3.22385763 11,3.5 L11,3.5 C11,3.77614237 10.7761424,4 10.5,4 L1.5,4 C1.22385763,4 1,3.77614237 1,3.5 L1,3.5 C1,3.22385763 1.22385763,3 1.5,3 Z" id="Rectangle-6-Copy-6" fill="#000000"></path>
                <path d="M1.5,5 L5.5,5 C5.77614237,5 6,5.22385763 6,5.5 L6,5.5 C6,5.77614237 5.77614237,6 5.5,6 L1.5,6 C1.22385763,6 1,5.77614237 1,5.5 L1,5.5 C1,5.22385763 1.22385763,5 1.5,5 Z" id="Rectangle-6-Copy-7" fill="#000000"></path>
                <path d="M1.5,7 L5.5,7 C5.77614237,7 6,7.22385763 6,7.5 L6,7.5 C6,7.77614237 5.77614237,8 5.5,8 L1.5,8 C1.22385763,8 1,7.77614237 1,7.5 L1,7.5 C1,7.22385763 1.22385763,7 1.5,7 Z" id="Rectangle-6-Copy-8" fill="#000000"></path>
            </g>
            <g id="Group-3-Copy" transform="translate(3.000000, 10.000000)">
                <g id="Rectangle-6-Copy-2">
                    <use fill="#FFFFFF" fill-rule="evenodd" xlink:href="#path-2"></use>
                    <path stroke="#000000" stroke-width="1" d="M5.25,7.5 L2.85,10.7 C2.60147186,11.0313708 2.13137085,11.0985281 1.8,10.85 C1.61114562,10.7083592 1.5,10.486068 1.5,10.25 L1.5,7.5 L0.5,7.5 C-0.0522847498,7.5 -0.5,7.05228475 -0.5,6.5 L-0.5,0.5 C-0.5,-0.0522847498 -0.0522847498,-0.5 0.5,-0.5 L9.5,-0.5 C10.0522847,-0.5 10.5,-0.0522847498 10.5,0.5 L10.5,6.5 C10.5,7.05228475 10.0522847,7.5 9.5,7.5 L5.25,7.5 Z"></path>
                </g>
                <path d="M2,2.5 L2,2.5 C2.55228475,2.5 3,2.94771525 3,3.5 L3,3.5 C3,4.05228475 2.55228475,4.5 2,4.5 L2,4.5 C1.44771525,4.5 1,4.05228475 1,3.5 L1,3.5 C1,2.94771525 1.44771525,2.5 2,2.5 Z" id="Rectangle-6-Copy-3" fill="#000000"></path>
                <path d="M5,2.5 L5,2.5 C5.55228475,2.5 6,2.94771525 6,3.5 L6,3.5 C6,4.05228475 5.55228475,4.5 5,4.5 L5,4.5 C4.44771525,4.5 4,4.05228475 4,3.5 L4,3.5 C4,2.94771525 4.44771525,2.5 5,2.5 Z" id="Rectangle-6-Copy-4" fill="#000000"></path>
                <path d="M8,2.5 L8,2.5 C8.55228475,2.5 9,2.94771525 9,3.5 L9,3.5 C9,4.05228475 8.55228475,4.5 8,4.5 L8,4.5 C7.44771525,4.5 7,4.05228475 7,3.5 L7,3.5 C7,2.94771525 7.44771525,2.5 8,2.5 Z" id="Rectangle-6-Copy-5" fill="#000000"></path>
            </g>
        </g>
    </g>
</svg>