<?xml version="1.0" encoding="UTF-8"?>
<svg width="24px" height="24px" viewBox="0 0 24 24" version="1.1" xmlns="http://www.w3.org/2000/svg" xmlns:xlink="http://www.w3.org/1999/xlink">
    <!-- Generator: Sketch 48.2 (47327) - http://www.bohemiancoding.com/sketch -->
    <title>android/ico/ulabox/menu/inicio</title>
    <desc>Created with Sketch.</desc>
    <defs>
        <path d="M6,11 C6,11 8,9 12,5 C16,9 18,11 18,11 C18,13.6666667 18,16.3333333 18,19 L18,19 C18,20.1045695 17.1045695,21 16,21 L8,21 C6.8954305,21 6,20.1045695 6,19 C6,16.3333333 6,13.6666667 6,11 Z" id="path-1"></path>
        <polygon id="path-2" points="12 4 3 11 4 12 12 5.94900876 20 12 21 11"></polygon>
        <path d="M10,15 C10,13.8954305 10.8954305,13 12,13 C13.1045695,13 14,13.8954305 14,15 L14,21 L10,21 L10,15 Z" id="path-3"></path>
    </defs>
    <g id="Symbols" stroke="none" stroke-width="1" fill="none" fill-rule="evenodd">
        <g id="android/ico/ulabox/menu/inicio">
            <rect id="Rectangle-7" x="0" y="0" width="24" height="24"></rect>
            <g id="Rectangle">
                <use fill="#FFFFFF" fill-rule="evenodd" xlink:href="#path-1"></use>
                <path stroke="#000000" stroke-width="1" d="M5.64644661,10.6464466 C6.64644661,9.64644661 6.64644661,9.64644661 11.6464466,4.64644661 L12,4.29289322 L12.3535534,4.64644661 C15.1035534,7.39644661 15.1035534,7.39644661 16.8535534,9.14644661 C17.5410534,9.83394661 17.5410534,9.83394661 17.9785534,10.2714466 C18.1504284,10.4433216 18.1504284,10.4433216 18.2598034,10.5526966 C18.3027721,10.5956654 18.3027721,10.5956654 18.3301159,10.6230091 C18.3408581,10.6337513 18.3408581,10.6337513 18.347694,10.6405872 C18.3503796,10.6432728 18.3503796,10.6432728 18.3520885,10.6449818 C18.3527599,10.6456532 18.3527599,10.6456532 18.3531872,10.6460804 C18.353355,10.6462482 18.353355,10.6462482 18.3534618,10.6463551 L18.5,10.7928932 L18.5,11 C18.5,15 18.5,15 18.5,19 C18.5,20.3807119 17.3807119,21.5 16,21.5 L8,21.5 C6.61928813,21.5 5.5,20.3807119 5.5,19 C5.5,15 5.5,15 5.5,11 L5.5,10.7928932 L5.64644661,10.6464466 Z"></path>
            </g>
            <g id="Combined-Shape" stroke-linejoin="round">
                <use fill="#FF5D77" fill-rule="evenodd" xlink:href="#path-2"></use>
                <path stroke="#000000" stroke-width="1" d="M12,6.57592612 L3.95434376,12.6614505 L2.24594762,10.9530544 L12,3.36656921 L21.7540524,10.9530544 L20.0456562,12.6614505 L12,6.57592612 Z"></path>
            </g>
            <g id="Combined-Shape">
                <use fill="#FFB400" fill-rule="evenodd" xlink:href="#path-3"></use>
                <path stroke="#000000" stroke-width="1" d="M9.5,15 C9.5,13.6192881 10.6192881,12.5 12,12.5 C13.3807119,12.5 14.5,13.6192881 14.5,15 L14.5,21.5 L9.5,21.5 L9.5,15 Z"></path>
            </g>
        </g>
    </g>
</svg>