<?xml version="1.0" encoding="UTF-8"?>
<svg width="24px" height="24px" viewBox="0 0 24 24" version="1.1" xmlns="http://www.w3.org/2000/svg" xmlns:xlink="http://www.w3.org/1999/xlink">
    <!-- Generator: Sketch 48.2 (47327) - http://www.bohemiancoding.com/sketch -->
    <title>android/ico/ulabox/menu/mercado</title>
    <desc>Created with Sketch.</desc>
    <defs>
        <rect id="path-1" x="0" y="0" width="22" height="5"></rect>
        <rect id="path-3" x="0" y="0" width="22" height="5"></rect>
        <rect id="path-5" x="0" y="0" width="22" height="5"></rect>
        <rect id="path-7" x="0" y="0" width="22" height="5"></rect>
        <rect id="path-9" x="0" y="0" width="22" height="5"></rect>
        <rect id="path-11" x="0" y="0" width="22" height="5"></rect>
        <rect id="path-13" x="0" y="0" width="22" height="5"></rect>
    </defs>
    <g id="Symbols" stroke="none" stroke-width="1" fill="none" fill-rule="evenodd">
        <g id="android/ico/ulabox/menu/mercado">
            <g id="mercado">
                <rect id="Rectangle-7" x="0" y="0" width="24" height="24"></rect>
                <g id="Rectangle-2-Copy-5" transform="translate(3.000000, 17.000000)">
                    <g id="path-1-link" fill="#9B9B9B">
                        <rect id="path-1" x="0" y="0" width="18" height="5"></rect>
                    </g>
                    <rect id="Rectangle-path" stroke="#000000" x="0.5" y="0.5" width="17" height="4"></rect>
                </g>
                <rect id="Rectangle-8-Copy-2" fill="#000000" fill-rule="nonzero" x="5" y="11" width="1" height="6"></rect>
                <rect id="Rectangle-8-Copy-3" fill="#000000" fill-rule="nonzero" x="18" y="11" width="1" height="6"></rect>
                <g id="Group" transform="translate(1.000000, 7.000000)">
                    <g id="Group-2-Copy-6-Clipped">
                        <mask id="mask-2" fill="white">
                            <use xlink:href="#path-1"></use>
                        </mask>
                        <g id="path-2"></g>
                        <g id="Group-2-Copy-6" mask="url(#mask-2)">
                            <g transform="translate(18.000000, -1.000000)" id="Combined-Shape">
                                <g>
                                    <path d="M3,4 L4,4 C4,5.1045695 3.1045695,6 2,6 C0.8954305,6 0,5.1045695 0,4 L1,4 C1,4.55228475 1.44771525,5 2,5 C2.55228475,5 3,4.55228475 3,4 Z M3,0 L4,0 L4,4 L3,4 L3,0 Z M0,0 L1,0 L1,4 L0,4 L0,0 Z" id="Shape" fill="#000000" fill-rule="nonzero"></path>
                                    <path d="M1,4 C1,4.55228475 1.44771525,5 2,5 C2.55228475,5 3,4.55228475 3,4 L3,0 L1,0 L1,4 Z" id="Shape" fill="#FF5D77" fill-rule="nonzero"></path>
                                </g>
                            </g>
                        </g>
                    </g>
                    <g id="Group-2-Copy-5-Clipped">
                        <mask id="mask-4" fill="white">
                            <use xlink:href="#path-3"></use>
                        </mask>
                        <g id="path-2"></g>
                        <g id="Group-2-Copy-5" mask="url(#mask-4)">
                            <g transform="translate(15.000000, -1.000000)" id="Combined-Shape">
                                <g>
                                    <path d="M3,4 L4,4 C4,5.1045695 3.1045695,6 2,6 C0.8954305,6 0,5.1045695 0,4 L1,4 C1,4.55228475 1.44771525,5 2,5 C2.55228475,5 3,4.55228475 3,4 Z M3,0 L4,0 L4,4 L3,4 L3,0 Z M0,0 L1,0 L1,4 L0,4 L0,0 Z" id="Shape" fill="#000000" fill-rule="nonzero"></path>
                                    <path d="M1,4 C1,4.55228475 1.44771525,5 2,5 C2.55228475,5 3,4.55228475 3,4 L3,0 L1,0 L1,4 Z" id="Shape" fill="#FFB400" fill-rule="nonzero"></path>
                                </g>
                            </g>
                        </g>
                    </g>
                    <g id="Group-2-Copy-4-Clipped">
                        <mask id="mask-6" fill="white">
                            <use xlink:href="#path-5"></use>
                        </mask>
                        <g id="path-2"></g>
                        <g id="Group-2-Copy-4" mask="url(#mask-6)">
                            <g transform="translate(12.000000, -1.000000)" id="Combined-Shape">
                                <g>
                                    <path d="M0.267564391,5 L0,5 L0,1 L1,1 L1,4 C1,4.55228475 1.44771525,5 2,5 C2.55228475,5 3,4.55228475 3,4 L4,4 C4,5.1045695 3.1045695,6 2,6 C1.25971764,6 0.613373811,5.59780137 0.267564391,5 Z M3,0 L4,0 L4,4 L3,4 L3,0 Z" id="Shape" fill="#000000" fill-rule="nonzero"></path>
                                    <path d="M1,4 C1,4.55228475 1.44771525,5 2,5 C2.55228475,5 3,4.55228475 3,4 L3,0 L1,0 L1,4 Z" id="Shape" fill="#FF5D77" fill-rule="nonzero"></path>
                                </g>
                            </g>
                        </g>
                    </g>
                    <g id="Group-2-Copy-3-Clipped">
                        <mask id="mask-8" fill="white">
                            <use xlink:href="#path-7"></use>
                        </mask>
                        <g id="path-2"></g>
                        <g id="Group-2-Copy-3" mask="url(#mask-8)">
                            <g transform="translate(9.000000, -1.000000)" id="Combined-Shape">
                                <g>
                                    <path d="M3,4 L4,4 C4,5.1045695 3.1045695,6 2,6 C0.8954305,6 0,5.1045695 0,4 L1,4 C1,4.55228475 1.44771525,5 2,5 C2.55228475,5 3,4.55228475 3,4 Z M3,0 L4,0 L4,4 L3,4 L3,0 Z M0,0 L1,0 L1,4 L0,4 L0,0 Z" id="Shape" fill="#000000" fill-rule="nonzero"></path>
                                    <path d="M1,4 C1,4.55228475 1.44771525,5 2,5 C2.55228475,5 3,4.55228475 3,4 L3,0 L1,0 L1,4 Z" id="Shape" fill="#FFB400" fill-rule="nonzero"></path>
                                </g>
                            </g>
                        </g>
                    </g>
                    <g id="Group-2-Copy-2-Clipped">
                        <mask id="mask-10" fill="white">
                            <use xlink:href="#path-9"></use>
                        </mask>
                        <g id="path-2"></g>
                        <g id="Group-2-Copy-2" mask="url(#mask-10)">
                            <g transform="translate(6.000000, -1.000000)" id="Combined-Shape">
                                <g>
                                    <path d="M3,4 L4,4 C4,5.1045695 3.1045695,6 2,6 C0.8954305,6 0,5.1045695 0,4 L1,4 C1,4.55228475 1.44771525,5 2,5 C2.55228475,5 3,4.55228475 3,4 Z M3,0 L4,0 L4,4 L3,4 L3,0 Z M0,0 L1,0 L1,4 L0,4 L0,0 Z" id="Shape" fill="#000000" fill-rule="nonzero"></path>
                                    <path d="M1,4 C1,4.55228475 1.44771525,5 2,5 C2.55228475,5 3,4.55228475 3,4 L3,0 L1,0 L1,4 Z" id="Shape" fill="#FF5D77" fill-rule="nonzero"></path>
                                </g>
                            </g>
                        </g>
                    </g>
                    <g id="Group-2-Copy-Clipped">
                        <mask id="mask-12" fill="white">
                            <use xlink:href="#path-11"></use>
                        </mask>
                        <g id="path-2"></g>
                        <g id="Group-2-Copy" mask="url(#mask-12)">
                            <g transform="translate(3.000000, -1.000000)" id="Combined-Shape">
                                <g>
                                    <path d="M3,4 L4,4 C4,5.1045695 3.1045695,6 2,6 C0.8954305,6 0,5.1045695 0,4 L1,4 C1,4.55228475 1.44771525,5 2,5 C2.55228475,5 3,4.55228475 3,4 Z M3,0 L4,0 L4,4 L3,4 L3,0 Z M0,0 L1,0 L1,4 L0,4 L0,0 Z" id="Shape" fill="#000000" fill-rule="nonzero"></path>
                                    <path d="M1,4 C1,4.55228475 1.44771525,5 2,5 C2.55228475,5 3,4.55228475 3,4 L3,0 L1,0 L1,4 Z" id="Shape" fill="#FFB400" fill-rule="nonzero"></path>
                                </g>
                            </g>
                        </g>
                    </g>
                    <g id="Group-2-Clipped">
                        <mask id="mask-14" fill="white">
                            <use xlink:href="#path-13"></use>
                        </mask>
                        <g id="path-2"></g>
                        <g id="Group-2" mask="url(#mask-14)">
                            <g transform="translate(0.000000, -1.000000)" id="Combined-Shape">
                                <g>
                                    <path d="M3,4 L4,4 C4,5.1045695 3.1045695,6 2,6 C0.8954305,6 0,5.1045695 0,4 L1,4 C1,4.55228475 1.44771525,5 2,5 C2.55228475,5 3,4.55228475 3,4 Z M3,0 L4,0 L4,4 L3,4 L3,0 Z M0,0 L1,0 L1,4 L0,4 L0,0 Z" id="Shape" fill="#000000" fill-rule="nonzero"></path>
                                    <path d="M1,4 C1,4.55228475 1.44771525,5 2,5 C2.55228475,5 3,4.55228475 3,4 L3,0 L1,0 L1,4 Z" id="Shape" fill="#FF5D77" fill-rule="nonzero"></path>
                                </g>
                            </g>
                        </g>
                    </g>
                </g>
                <g id="techo" transform="translate(1.000000, 2.000000)">
                    <g id="Path-2">
                        <g id="path-4-link" fill="#FF5D77">
                            <polygon id="path-4" points="6 0 16 0 22 5 0 5"></polygon>
                        </g>
                        <polygon id="Shape" stroke="#000000" points="6.18102497 0.5 1.38102497 4.5 20.618975 4.5 15.818975 0.5"></polygon>
                    </g>
                </g>
            </g>
        </g>
    </g>
</svg>