<?xml version="1.0" encoding="UTF-8"?>
<svg width="24px" height="24px" viewBox="0 0 24 24" version="1.1" xmlns="http://www.w3.org/2000/svg" xmlns:xlink="http://www.w3.org/1999/xlink">
    <!-- Generator: Sketch 48.2 (47327) - http://www.bohemiancoding.com/sketch -->
    <title>android/ico/ulabox/menu/att_cliente</title>
    <desc>Created with Sketch.</desc>
    <defs>
        <path d="M4,4 C2.8954305,4 2,4.8954305 2,6 L2,12 C2,13.1045695 2.8954305,14 4,14 L4,18 C1.790861,18 2.705415e-16,16.209139 0,14 L0,4 C-2.705415e-16,1.790861 1.790861,4.05812251e-16 4,0 L4,4 Z" id="path-1"></path>
        <path d="M5,0 L6,0 C6.55228475,-1.01453063e-16 7,0.44771525 7,1 L7,3 C7,3.55228475 6.55228475,4 6,4 L5,4 L5,0 Z" id="path-2"></path>
        <path d="M5,14 L6,14 C6.55228475,14 7,14.4477153 7,15 L7,17 C7,17.5522847 6.55228475,18 6,18 L5,18 L5,14 Z" id="path-3"></path>
    </defs>
    <g id="Symbols" stroke="none" stroke-width="1" fill="none" fill-rule="evenodd">
        <g id="android/ico/ulabox/menu/att_cliente">
            <rect id="Rectangle-7" x="0" y="0" width="24" height="24"></rect>
            <g id="Group" transform="translate(10.838835, 13.838835) rotate(-45.000000) translate(-10.838835, -13.838835) translate(7.338835, 4.838835)">
                <g id="Combined-Shape">
                    <use fill="#FFB400" fill-rule="evenodd" xlink:href="#path-1"></use>
                    <path stroke="#000000" stroke-width="1" d="M4,4.5 C3.17157288,4.5 2.5,5.17157288 2.5,6 L2.5,12 C2.5,12.8284271 3.17157288,13.5 4,13.5 L4.5,13.5 L4.5,18.5 L4,18.5 C1.51471863,18.5 -0.5,16.4852814 -0.5,14 L-0.5,4 C-0.5,1.51471863 1.51471863,-0.5 4,-0.5 L4.5,-0.5 L4.5,4.5 L4,4.5 Z"></path>
                </g>
                <g id="Rectangle-6-Copy-2">
                    <use fill="#FFFFFF" fill-rule="evenodd" xlink:href="#path-2"></use>
                    <path stroke="#000000" stroke-width="1" d="M4.5,-0.5 L6,-0.5 C6.82842712,-0.5 7.5,0.171572875 7.5,1 L7.5,3 C7.5,3.82842712 6.82842712,4.5 6,4.5 L4.5,4.5 L4.5,-0.5 Z"></path>
                </g>
                <g id="Rectangle-6-Copy-3">
                    <use fill="#FFFFFF" fill-rule="evenodd" xlink:href="#path-3"></use>
                    <path stroke="#000000" stroke-width="1" d="M4.5,13.5 L6,13.5 C6.82842712,13.5 7.5,14.1715729 7.5,15 L7.5,17 C7.5,17.8284271 6.82842712,18.5 6,18.5 L4.5,18.5 L4.5,13.5 Z"></path>
                </g>
            </g>
            <g id="Group-3" transform="translate(11.000000, 3.000000)" fill="#000000" fill-rule="nonzero">
                <path d="M1.03687891,0 C0.745714844,0 0.509640625,0.236074219 0.509640625,0.527238281 C0.509640625,0.818402344 0.745714844,1.05447656 1.03687891,1.05447656 C5.39769531,1.05447656 8.94548828,4.60226953 8.94548828,8.96308594 C8.94548828,9.25425 9.1815625,9.49032422 9.47272656,9.49032422 C9.76389062,9.49032422 9.99996484,9.25425 9.99996484,8.96308594 C9.99996484,4.00914844 5.99116797,0 1.03687891,0 Z" id="Shape"></path>
                <path d="M1.03687891,2.10895312 C0.745714844,2.10895312 0.509640625,2.34502734 0.509640625,2.63619141 C0.509640625,2.92735547 0.745714844,3.16342969 1.03687891,3.16342969 C4.23479687,3.16342969 6.83653516,5.76516797 6.83653516,8.96308594 C6.83653516,9.25425 7.07257422,9.49032422 7.36377344,9.49032422 C7.6549375,9.49032422 7.89101172,9.25425 7.89101172,8.96308594 C7.89101172,5.18371875 4.81624609,2.10895312 1.03687891,2.10895312 Z" id="Shape"></path>
                <path d="M1.03687891,4.21794141 C0.745714844,4.21794141 0.509640625,4.45401562 0.509640625,4.74517969 C0.509640625,5.03634375 0.745714844,5.27241797 1.03687891,5.27241797 C3.07193359,5.27241797 4.72754687,6.92806641 4.72754687,8.96308594 C4.72754687,9.25425 4.96362109,9.49032422 5.25478516,9.49032422 C5.54594922,9.49032422 5.78202344,9.25425 5.78202344,8.96308594 C5.78202344,6.34661719 3.65334766,4.21794141 1.03687891,4.21794141 Z" id="Shape"></path>
            </g>
        </g>
    </g>
</svg>