<?xml version="1.0" encoding="UTF-8"?>
<svg width="48px" height="48px" viewBox="0 0 48 48" version="1.1" xmlns="http://www.w3.org/2000/svg" xmlns:xlink="http://www.w3.org/1999/xlink" style="background: #FF5D77;">
    <!-- Generator: Sketch 48.2 (47327) - http://www.bohemiancoding.com/sketch -->
    <title>logo_unilever</title>
    <desc>Created with Sketch.</desc>
    <defs></defs>
    <g id="Page-1" stroke="none" stroke-width="1" fill="none" fill-rule="evenodd">
        <g id="logo_unilever" fill="#FFFFFF">
            <g id="Unilever-Copy" transform="translate(7.000000, 6.000000)">
                <path d="M31.0627416,7.83991011 C30.8774831,7.83991011 30.6121348,7.83991011 30.4661124,7.54907865 C30.346382,7.31042697 30.3868315,6.92575281 30.1615281,6.7538427 C30.3868315,6.81977528 30.6250787,6.81977528 30.8107416,6.81977528 C31.4073708,6.81977528 31.9781124,6.40921348 32.4157753,6.40921348 C32.7041798,6.40921348 32.7972135,6.5948764 32.7972135,6.77973034 C32.7972135,7.36341573 31.6201348,7.83991011 31.0627416,7.83991011 Z M31.3539775,9.33694382 C32.7304719,9.33694382 33.9904719,8.23752809 33.9904719,7.27078652 C33.9904719,6.81977528 33.7777079,6.44925843 33.2344719,6.38292135 C33.3275056,6.50224719 33.3667416,6.5948764 33.3667416,6.80683146 C33.3667416,7.53573034 32.2564045,8.34391011 31.0497978,8.34391011 C30.6121348,8.34391011 30.4794607,8.64808989 30.4794607,8.80705618 C30.4794607,9.17838202 30.8378427,9.33694382 31.3539775,9.33694382 Z M31.2484045,9.89352809 C31.4211236,11.1515056 33.3275056,12.8475506 33.8440449,12.8075056 C34.1894831,12.778382 34.3217528,11.1648539 34.3217528,9.89352809 C34.3217528,9.16503371 34.3613933,8.59510112 33.9771236,8.46242697 C33.3667416,9.69492135 31.7657528,9.94651685 31.2484045,9.89352809 Z" id="Fill-4"></path>
                <path d="M1.43150562,18.2257079 C1.88130337,18.2257079 1.78867416,15.4698876 2.51716854,15.4698876 C2.68948315,15.4698876 2.74247191,15.6422022 2.74247191,15.8541573 C2.74247191,16.4766742 2.43748315,17.391236 2.43748315,17.8940225 C2.43748315,18.1460225 2.50382022,18.2257079 2.62314607,18.2257079 C2.94188764,18.2257079 3.49766292,15.1915955 4.04049438,15.1915955 C4.21280899,15.1915955 4.29208989,15.3639101 4.29208989,15.5362247 C4.29208989,16.1720899 3.4847191,18 3.4847191,18.5165393 C3.4847191,18.5962247 3.51101124,18.6621573 3.57734831,18.6621573 C3.90862921,18.6621573 4.57078652,17.2318652 4.78233708,16.5167191 C4.90166292,16.1453933 5.06062921,15.946382 5.20665169,15.946382 C5.33892135,15.946382 5.45865169,16.0924045 5.45865169,16.3973933 C5.45865169,17.1125393 4.79568539,18.7948315 4.21280899,19.9213483 C3.76301124,20.7954607 3.06080899,22.0530337 3.06080899,22.755236 C3.06080899,23.1132135 3.12593258,23.4837303 3.6432809,23.9343371 C2.79546067,23.8813483 2.45123596,23.8020674 2.13330337,23.1399101 C0.715550562,25.9612584 4.74310112,25.6833708 3.36498876,28.1859775 C3.11298876,27.7361798 1.12651685,27.2726292 1.12651685,24.6494831 C1.12651685,22.3847191 3.11298876,21.06 3.11298876,20.1195506 C3.11298876,19.9342921 3.04746067,19.7753258 2.87514607,19.6297079 C2.43748315,19.2579775 2.42413483,18.9542022 2.08031461,18.9542022 C1.8291236,18.9542022 1.52332584,19.5366742 1.84166292,20.0532135 C1.94764045,20.2255281 2.04067416,20.3315056 2.04067416,20.4904719 C2.04067416,20.8609888 1.45739326,21.8540225 1.04723596,21.8540225 C0.636269663,21.8540225 0.319146067,20.8355056 0.319146067,19.1920449 C0.319146067,17.7346517 0.649617978,16.2647191 1.06058427,16.2647191 C1.17950562,16.2647191 1.21914607,16.344 1.21914607,16.450382 C1.21914607,16.6226966 1.1665618,16.9665169 1.1665618,17.5493933 C1.1665618,18.1723146 1.31217978,18.2257079 1.43150562,18.2257079" id="Fill-5"></path>
                <path d="M4.80862921,22.106427 C5.36561798,22.106427 5.82876404,21.6950562 5.82876404,20.7825169 L5.82876404,19.4306966 C5.82876404,18.9141573 5.86880899,18.3316854 6.2134382,17.9203146 C6.17379775,18.0930337 6.17379775,18.2782921 6.17379775,18.4502022 C6.17379775,19.5896629 6.80925843,20.3715506 6.80925843,21.4705618 C6.80925843,21.8807191 6.68993258,22.106427 6.37280899,22.106427 C6.06782022,22.106427 6.09411236,21.8281348 6.02777528,21.8281348 C5.97559551,21.8281348 5.89550562,22.0000449 5.89550562,22.1857079 C5.89550562,22.464 6.09411236,22.9008539 6.65029213,22.9008539 C7.12759551,22.9008539 7.51105618,22.464 7.51105618,21.9737528 C7.51105618,20.7825169 6.58395506,19.4569888 6.58395506,18.1856629 C6.58395506,17.6290787 6.72997753,17.2585618 6.84930337,16.9665169 C6.84930337,19.6030112 9.08777528,21.5235506 9.08777528,22.6225618 C9.08777528,22.8745618 8.90251685,23.073573 8.62422472,23.073573 C8.31964045,23.073573 8.17361798,22.8345169 8.17361798,22.6488539 C8.17361798,22.5562247 8.16026966,22.5299326 8.12062921,22.5299326 C8.04175281,22.5299326 7.80310112,22.7948764 7.80310112,23.1399101 C7.80310112,23.5763596 8.16026966,24.1070562 8.82323596,24.1070562 C9.57761798,24.1070562 9.98817978,23.470382 9.98817978,22.9008539 C9.98817978,21.5106067 7.27321348,19.404 7.27321348,17.1525843 C7.27321348,16.7679101 7.33874157,16.1453933 7.6174382,15.6688989 C5.86880899,16.7942022 5.32597753,18.2916404 5.32597753,19.6030112 C5.32597753,20.7424719 5.28633708,21.311191 4.70346067,21.311191 C4.39847191,21.311191 4.31919101,21.0337079 4.21280899,21.0337079 C4.13352809,21.0337079 4.09348315,21.2719551 4.09348315,21.3378876 C4.09348315,21.8281348 4.45146067,22.106427 4.80862921,22.106427" id="Fill-6"></path>
                <path d="M24.877618,7.19110112 C25.0458876,7.07824719 25.7925843,7.25703371 26.7581124,6.77973034 C26.8770337,6.71460674 26.9963596,6.68791011 27.1023371,6.68791011 C27.5666966,6.68791011 27.4469663,7.21739326 27.8716854,7.21739326 C28.2025618,7.21739326 28.6272809,6.93910112 28.8796854,6.93910112 C29.2740674,6.93910112 29.844,8.18453933 29.844,8.76741573 C29.844,9.44292135 28.8262921,9.85388764 27.6196854,9.85388764 C25.8593258,9.85388764 24.7983371,8.31721348 24.7983371,7.32337079 C24.7983371,7.24408989 24.838382,7.21739326 24.877618,7.19110112 Z M27.7657079,8.87339326 C28.3489888,8.87339326 28.7862472,8.60844944 28.7862472,8.44907865 C28.7862472,8.39689888 28.7069663,8.35685393 28.5342472,8.35685393 C28.3619326,8.35685393 28.0173034,8.34391011 27.3676854,8.23752809 C26.8102921,8.14489888 26.386382,7.93294382 26.2274157,7.93294382 C26.174427,7.93294382 26.1477303,7.95923596 26.1477303,7.9988764 C26.1477303,8.34391011 26.7844045,8.87339326 27.7657079,8.87339326 Z" id="Fill-7"></path>
                <path d="M5.08732584,27.1003146 C4.65047191,27.2066966 3.94786517,27.8943371 3.94786517,28.9820225 C3.94786517,30.279236 5.33892135,32.2806742 7.63038202,32.2806742 C9.56426966,32.2806742 10.0411685,30.9426067 10.0411685,30.0409888 C10.0411685,28.040764 8.80988764,26.636764 7.2072809,26.636764 C6.33276404,26.636764 5.5512809,27.2726292 5.5512809,28.2122697 C5.5512809,29.0875955 6.2134382,30.3985618 7.78975281,30.3985618 C8.53159551,30.3985618 8.96844944,29.8682697 8.96844944,29.2603146 C8.96844944,28.6636854 8.42561798,27.8429663 7.63038202,27.8429663 C7.39213483,27.8429663 7.22062921,28.0003146 7.22062921,28.2531236 C7.22062921,28.5702472 7.65707865,28.8889888 8.20031461,28.8889888 C8.33258427,28.8889888 8.4385618,28.8618876 8.49195506,28.8355955 C8.51824719,28.8764494 8.53159551,28.9419775 8.53159551,28.9949663 C8.53159551,29.2995506 8.23995506,29.4852135 7.78975281,29.4852135 C7.11424719,29.4852135 6.46462921,28.9820225 6.46462921,28.1859775 C6.46462921,27.7102921 6.87559551,27.3656629 7.47182022,27.3656629 C8.65051685,27.3656629 9.35231461,28.4116854 9.35231461,29.4589213 C9.35231461,30.3985618 8.83658427,30.9426067 7.77680899,30.9426067 C5.65644944,30.9426067 4.62417978,29.0346067 5.08732584,27.1003146" id="Fill-8"></path>
                <path d="M20.2081348,34.8613483 C20.8435955,34.8613483 20.810427,34.808764 21.0094382,34.808764 C21.2080449,34.808764 21.2217978,34.9280899 21.2217978,35.0077753 C21.2217978,35.2994157 20.5717753,35.6569888 19.4197753,35.6569888 C18.7442697,35.6569888 18.3333034,35.2994157 18.2139775,34.9017978 C17.5522247,35.3257079 16.5454382,35.7099775 15.5515955,35.7099775 C12.8366292,35.7099775 12.1477753,34.5300674 11.2995506,34.1470112 C10.6503371,33.8553708 9.65730337,34.4253034 8.2658427,32.8752809 C8.45150562,32.9153258 8.70391011,32.9282697 8.90251685,32.9282697 C10.1200449,32.9282697 10.7696629,32.3332584 10.7696629,31.3786517 C10.7696629,31.2589213 10.7563146,31.1278652 10.7429663,31.0089438 C11.1142921,31.1549663 11.9621124,31.789618 12.1611236,32.9153258 C12.1874157,33.048 12.7302472,33.1669213 13.0744719,33.1669213 C13.5517753,33.1669213 14.1609438,32.9679101 14.253573,32.187236 C15.843236,32.0549663 16.916764,31.1149213 17.1420674,29.9216629 C17.7107865,30.1073258 18.36,30.6238652 18.5189663,30.8892135 C18.7442697,30.8099326 19.008809,30.7698876 19.3133933,30.7698876 C19.7373034,30.7698876 20.2146067,30.8499775 20.7837303,31.0218876 C20.810427,30.8499775 20.8367191,30.637618 21.1020674,30.637618 C21.4992809,30.637618 21.3933034,31.0748764 21.5259775,31.3252584 C21.5923146,31.4583371 21.924,31.537618 21.924,31.8025618 C21.924,32.0549663 21.7108315,32.148 21.5789663,32.148 C21.5259775,32.148 21.4596404,32.1342472 21.4195955,32.1213034 C21.1550562,32.2143371 21.1417079,34.1203146 20.0289438,34.1203146 C19.2078202,34.1203146 18.4526292,33.4452135 18.1213483,32.5982022 C18.0283146,32.3466067 17.8301124,32.187236 17.6444494,32.187236 C17.4328989,32.187236 17.313573,32.2272809 17.062382,32.505573 C16.347236,33.2862472 15.1547865,33.9617528 13.6844494,33.9617528 C13.2338427,33.9617528 12.8762697,33.9213034 12.783236,33.9213034 C12.7302472,33.9213034 12.7302472,33.9350562 12.7302472,33.948 C12.7302472,34.0410337 13.1804494,34.3990112 14.1609438,34.3990112 C16.4920449,34.3990112 17.062382,33.087236 17.4328989,33.087236 C17.4862921,33.087236 17.6444494,33.087236 17.7370787,33.2995955 C18.2803146,34.5701124 19.4662921,34.8613483 20.2081348,34.8613483 Z M19.1811236,32.2143371 C19.1811236,32.505573 19.4197753,32.7442247 19.7114157,32.7442247 C20.0026517,32.7442247 20.2408989,32.505573 20.2408989,32.2143371 C20.2408989,31.9222921 20.0026517,31.6836404 19.7114157,31.6836404 C19.4197753,31.6836404 19.1811236,31.9222921 19.1811236,32.2143371 Z" id="Fill-9"></path>
                <path d="M29.6716854,25.6032809 C29.486427,25.6032809 29.2874157,25.7493034 29.2874157,26.1076854 C29.2874157,26.5036854 29.5924045,26.7560899 29.7643146,26.8349663 C29.8577528,26.888764 30.0033708,26.9413483 30.1477753,26.9413483 C30.5324494,26.9413483 30.8378427,26.8349663 30.8378427,26.5166292 C30.8378427,26.1076854 30.240809,25.6032809 29.6716854,25.6032809 Z M28.2430112,26.424 C27.9647191,26.424 26.4260225,28.4772135 25.4346067,28.4772135 C25.1963596,28.4772135 24.9973483,28.0270112 24.9973483,27.684 C24.9973483,27.4983371 25.1162697,27.3656629 25.5413933,27.2726292 C27.8186966,26.7560899 27.3146966,25.0466966 29.2607191,25.0466966 C30.3334382,25.0466966 31.5271011,25.7764045 31.5271011,27.4182472 C31.5271011,29.1668764 29.0382472,31.3390112 28.6669213,31.3390112 C28.3619326,31.3390112 28.0306517,30.9017528 28.0306517,30.6109213 C28.0306517,30.5182921 28.0702921,30.3985618 28.3356404,30.2929888 C29.6053483,29.7885843 30.3334382,28.6236404 30.3334382,28.0270112 C30.3334382,27.8943371 30.2675056,27.7632809 30.095191,27.7632809 C29.8706966,27.7632809 28.9059775,29.9608989 27.8320449,29.9608989 C27.0889888,29.9608989 26.3333933,29.2870112 26.3333933,28.9682697 C26.3333933,28.4379775 28.4812584,27.4582921 28.4812584,26.7156404 C28.4812584,26.4365393 28.3489888,26.424 28.2430112,26.424 Z" id="Fill-10"></path>
                <path d="M2.02732584,9.05905618 C2.02732584,9.05905618 1.64346067,9.34988764 1.1665618,9.34988764 C0.597438202,9.34988764 0.146426966,8.92638202 0.146426966,8.3305618 C0.146426966,7.91959551 0.358786517,7.49608989 0.848629213,7.28373034 C0.835280899,7.36341573 0.835280899,7.42934831 0.835280899,7.50903371 C0.835280899,8.26422472 1.25919101,8.83334831 2.02732584,9.05905618 Z M4.86202247,11.6025169 C4.57078652,11.9463371 4.26579775,12.529618 4.26579775,13.1254382 C4.26579775,13.8405843 4.70346067,14.4364045 5.37896629,14.4364045 C6.02777528,14.4364045 6.33276404,13.8802247 6.33276404,13.3111011 C6.33276404,12.4236404 5.52458427,11.8003146 4.86202247,11.6025169 Z M0.464764045,12.132 C0.440089888,12.1728539 0.425123596,12.2250337 0.425123596,12.2780225 C0.425123596,12.3973483 0.557797753,12.529618 0.676314607,12.529618 C0.782292135,12.529618 0.848629213,12.5033258 0.901213483,12.5033258 C1.21914607,12.5033258 1.5767191,12.7282247 2.09366292,12.7282247 C2.3978427,12.7282247 2.75582022,12.635191 3.20602247,12.4106966 C4.15982022,11.9333933 4.53114607,10.7546966 4.53114607,10.5556854 C4.53114607,10.3036854 4.32889888,10.3368539 4.15982022,10.1050787 C3.99074157,9.87411236 4.05546067,9.6698427 3.94786517,9.5618427 C3.88638202,9.49995506 3.69667416,9.49591011 3.45761798,9.46921348 C3.37793258,9.4607191 3.27195506,9.45586517 3.16597753,9.45586517 C2.72952809,9.45586517 2.21137079,9.50966292 1.62970787,9.88017978 C0.480539326,10.6135281 0.649617978,11.8274157 0.464764045,12.132 Z M3.57734831,10.4893483 C3.66876404,10.6143371 3.92197753,10.7680449 3.92197753,10.8606742 C3.92197753,11.0455281 3.81559551,11.2845843 3.60364045,11.2845843 C3.13968539,11.2845843 2.76916854,10.582382 2.76916854,10.1843596 C2.76916854,9.93316854 2.91519101,9.9068764 3.11298876,9.9068764 C3.20602247,9.9068764 3.24566292,9.92022472 3.312,9.95986517 C3.43132584,10.0262022 3.43132584,10.2907416 3.57734831,10.4893483 Z M2.35820225,12.1057079 C1.92134831,12.1057079 1.44444944,11.5628764 1.44444944,11.0722247 C1.44444944,10.8076854 1.64346067,10.476 1.78867416,10.476 C1.84166292,10.476 1.86835955,10.5160449 1.88130337,10.6090787 C1.96098876,11.2578876 2.38530337,11.6292135 2.78251685,11.8140674 C2.8221573,11.8403596 2.84885393,11.8537079 2.84885393,11.88 C2.84885393,11.9730337 2.59685393,12.1057079 2.35820225,12.1057079 Z M3.4847191,8.76741573 C3.55065169,8.55505618 3.60364045,8.29092135 3.60364045,7.9988764 C3.60364045,7.36341573 3.312,6.39626966 2.41119101,6.39626966 C1.89505618,6.39626966 1.52332584,6.80683146 1.52332584,7.29707865 C1.52332584,8.34391011 2.56975281,8.76741573 3.4847191,8.76741573 Z M0.0537977528,14.0658876 C0.0537977528,15.0722697 0.358786517,15.549573 0.901213483,15.549573 C1.3251236,15.549573 1.89505618,15.2445843 2.56975281,14.6617079 C2.05361798,14.7810337 1.656,14.8607191 1.29883146,14.8607191 C0.821932584,14.8607191 0.45141573,14.6750562 0.0537977528,14.0658876 Z M0.517752809,12.8867865 C0.504808989,12.9535281 0.504808989,13.0194607 0.504808989,13.0853933 C0.504808989,13.7079101 0.835280899,14.0525393 1.27294382,14.0525393 C1.60301124,14.0525393 1.98768539,13.8539326 2.33150562,13.4162697 C2.18629213,13.4425618 2.01357303,13.4559101 1.85501124,13.4559101 C1.36516854,13.4559101 0.835280899,13.3240449 0.517752809,12.8867865 Z M3.76301124,12.7015281 C3.45761798,12.780809 2.8221573,13.1517303 2.8221573,13.8138876 C2.8221573,14.290382 3.19267416,14.5957753 3.65662921,14.5957753 C3.8952809,14.5957753 4.06719101,14.542382 4.17316854,14.4631011 C3.80265169,14.1055281 3.66997753,13.7079101 3.66997753,13.3111011 C3.66997753,13.0324045 3.70961798,12.8604944 3.76301124,12.7015281 Z M4.23950562,9.072 C4.23950562,9.36323596 4.47775281,9.60188764 4.76898876,9.60188764 C5.06062921,9.60188764 5.2992809,9.36323596 5.2992809,9.072 C5.2992809,8.78076404 5.06062921,8.54170787 4.76898876,8.54170787 C4.47775281,8.54170787 4.23950562,8.78076404 4.23950562,9.072 Z M4.92795506,10.2640449 C4.92795506,10.5556854 5.16660674,10.7943371 5.45865169,10.7943371 C5.74948315,10.7943371 5.98813483,10.5556854 5.98813483,10.2640449 C5.98813483,9.97321348 5.74948315,9.7345618 5.45865169,9.7345618 C5.16660674,9.7345618 4.92795506,9.97321348 4.92795506,10.2640449 Z" id="Fill-11"></path>
                <path d="M25.5939775,16.7679101 C25.5939775,16.5033708 25.8326292,16.2780674 26.0947416,16.2780674 C26.386382,16.2780674 26.6120899,16.5033708 26.6120899,16.7679101 C26.6120899,17.0724944 26.386382,17.2848539 26.0947416,17.2848539 C25.8326292,17.2848539 25.5939775,17.0724944 25.5939775,16.7679101 Z M20.9431011,12.6881798 C20.9431011,12.9794157 21.1821573,13.2180674 21.4725843,13.2180674 C21.7650337,13.2180674 22.0036854,12.9794157 22.0036854,12.6881798 C22.0036854,12.3973483 21.7650337,12.1586966 21.4725843,12.1586966 C21.1821573,12.1586966 20.9431011,12.3973483 20.9431011,12.6881798 Z M20.4933034,14.5557303 C20.4933034,14.9666966 20.8367191,15.3105169 21.2480899,15.3105169 C21.6582472,15.3105169 22.0036854,14.9666966 22.0036854,14.5557303 C22.0036854,14.145573 21.6582472,13.8005393 21.2480899,13.8005393 C20.8367191,13.8005393 20.4933034,14.145573 20.4933034,14.5557303 Z M22.1626517,13.7079101 C22.1626517,14.1589213 22.5206292,14.5160899 22.9684045,14.5160899 C23.4190112,14.5160899 23.7777978,14.1589213 23.7777978,13.7079101 C23.7777978,13.2577079 23.4190112,12.9001348 22.9684045,12.9001348 C22.5206292,12.9001348 22.1626517,13.2577079 22.1626517,13.7079101 Z M22.2293933,11.9859775 C22.2293933,12.2646742 22.4546966,12.490382 22.7301573,12.490382 C23.0084494,12.490382 23.2341573,12.2646742 23.2341573,11.9859775 C23.2341573,11.7084944 23.0084494,11.483191 22.7301573,11.483191 C22.4546966,11.483191 22.2293933,11.7084944 22.2293933,11.9859775 Z M24.6260225,10.7150562 C24.6260225,10.9925393 24.8509213,11.2178427 25.1300225,11.2178427 C25.4083146,11.2178427 25.6340225,10.9925393 25.6340225,10.7150562 C25.6340225,10.4363596 25.4083146,10.2110562 25.1300225,10.2110562 C24.8509213,10.2110562 24.6260225,10.4363596 24.6260225,10.7150562 Z M23.6317753,12.3443596 C23.6317753,12.8075056 24.0160449,13.1913708 24.4795955,13.1913708 C24.9443596,13.1913708 25.3286292,12.8075056 25.3286292,12.3443596 C25.3286292,11.88 24.9443596,11.4965393 24.4795955,11.4965393 C24.0160449,11.4965393 23.6317753,11.88 23.6317753,12.3443596 Z M22.2686292,15.4435955 C22.2686292,15.735236 22.5072809,15.9730787 22.7960899,15.9730787 C23.0877303,15.9730787 23.3267865,15.735236 23.3267865,15.4435955 C23.3267865,15.1519551 23.0877303,14.9137079 22.7960899,14.9137079 C22.5072809,14.9137079 22.2686292,15.1519551 22.2686292,15.4435955 Z M24.0031011,14.3834157 C24.0031011,14.6750562 24.2413483,14.9137079 24.5333933,14.9137079 C24.8246292,14.9137079 25.0632809,14.6750562 25.0632809,14.3834157 C25.0632809,14.0925843 24.8246292,13.8539326 24.5333933,13.8539326 C24.2413483,13.8539326 24.0031011,14.0925843 24.0031011,14.3834157 Z M23.5128539,16.2513708 C23.5128539,16.7545618 23.9234157,17.1655281 24.4274157,17.1655281 C24.9310112,17.1655281 25.342382,16.7545618 25.342382,16.2513708 C25.342382,15.7481798 24.9310112,15.3372135 24.4274157,15.3372135 C23.9234157,15.3372135 23.5128539,15.7481798 23.5128539,16.2513708 Z M25.4212584,15.1248539 C25.4212584,15.4698876 25.6999551,15.7481798 26.0421573,15.7481798 C26.386382,15.7481798 26.6650787,15.4698876 26.6650787,15.1248539 C26.6650787,14.7810337 26.386382,14.5027416 26.0421573,14.5027416 C25.6999551,14.5027416 25.4212584,14.7810337 25.4212584,15.1248539 Z M25.381618,13.4559101 C25.381618,13.7613034 25.6340225,14.0128989 25.9353708,14.0128989 C26.240764,14.0128989 26.492764,13.7613034 26.492764,13.4559101 C26.492764,13.1517303 26.240764,12.9001348 25.9353708,12.9001348 C25.6340225,12.9001348 25.381618,13.1517303 25.381618,13.4559101 Z" id="Fill-12"></path>
                <path d="M26.7310112,30.8362247 C26.386382,31.1019775 25.5806292,31.6965843 24.2413483,31.6965843 C23.5257978,31.6965843 23.2074607,31.4716854 23.1010787,31.4716854 C22.9684045,31.4716854 22.8227865,31.6039551 22.676764,31.7766742 C22.3620674,32.148 21.9511011,32.8368539 21.9511011,33.591236 C21.9511011,34.1203146 22.3620674,34.6497978 23.1277753,34.6497978 C25.6073258,34.6497978 27.4603146,33.1005843 27.4603146,31.8430112 C27.4603146,31.1278652 27.0364045,30.8362247 26.7310112,30.8362247 Z M26.0421573,30.6906067 C26.1493483,30.599191 26.174427,30.4523596 26.174427,30.3059326 L26.174427,30.0013483 C26.174427,29.6166742 25.5939775,29.3925843 24.7983371,29.3925843 C23.830382,29.3925843 23.3134382,29.8286292 23.3134382,30.0146966 L23.3134382,30.6238652 C23.3134382,30.8762697 23.8971236,31.1278652 24.6130787,31.1278652 C25.1830112,31.1278652 25.6999551,30.9822472 26.0421573,30.6906067 Z M25.9353708,32.0019775 C26.0021124,32.0019775 26.0809888,32.0412135 26.0809888,32.2806742 C26.0809888,32.5711011 25.9491236,32.9553708 25.4742472,33.2595506 C25.1429663,33.4852584 24.6923596,33.6709213 24.0293933,33.6830562 C24.1353708,33.3659326 24.2150562,33.0342472 24.2150562,32.7179326 C24.2150562,32.6115506 24.2021124,32.5318652 24.188764,32.4129438 L24.3610787,32.4129438 C25.4083146,32.4129438 25.8593258,32.0019775 25.9353708,32.0019775 Z" id="Fill-13"></path>
                <path d="M20.876764,15.8149213 C21.0227865,16.9402247 22.5339775,16.3706966 22.5339775,17.7346517 C22.5339775,17.9336629 22.4809888,18.2257079 22.4809888,18.4768989 C22.4809888,18.7685393 22.5072809,19.0201348 22.7301573,19.0201348 C22.9550562,19.0201348 23.0084494,18.861573 23.0084494,18.6492135 C23.0084494,18.4368539 22.9550562,18.1723146 22.9550562,18.0266966 C22.9550562,17.5627416 23.2867416,17.4571685 23.4861573,17.4571685 C23.9897528,17.4571685 24.3740225,17.9737079 25.1300225,17.9737079 C24.9573034,18.8215281 23.2074607,18.5962247 23.2074607,19.5237303 C23.2074607,19.9876854 23.6718202,20.0928539 23.9764045,20.0928539 C24.2551011,20.0928539 24.3477303,20.0532135 24.3477303,19.8153708 C24.3477303,19.6822921 24.3210337,19.5366742 24.3210337,19.4440449 C24.3210337,19.3906517 24.3610787,19.3376629 24.4274157,19.3376629 C24.7194607,19.3376629 26.1477303,20.4241348 26.1477303,20.7558202 C26.1477303,21.06 24.6393708,21.3645843 24.2021124,21.3645843 C24.0694382,21.3645843 24.0431461,21.2719551 24.0431461,21.2189663 C24.0431461,21.1263371 24.2680449,20.8480449 24.2680449,20.6894831 C24.2680449,20.5701573 24.0694382,20.4904719 23.5387416,20.4904719 C23.2867416,20.4904719 23.1010787,20.5171685 23.1010787,20.7161798 C23.1010787,21.0729438 23.684764,21.5106067 23.684764,21.8410787 C23.684764,22.106427 23.5257978,22.2653933 23.1010787,22.2653933 C22.7435056,22.2653933 22.2022921,21.9866966 22.2022921,21.5235506 C22.2022921,21.1526292 22.5845393,20.7825169 22.5845393,20.556809 C22.5845393,20.4904719 22.5339775,20.3844944 22.3750112,20.3844944 C21.8843596,20.3844944 21.7516854,21.6821124 20.0155955,21.8281348 C20.2938876,21.5765393 20.5321348,21.2982472 20.5321348,20.7295281 C20.5321348,20.451236 20.4666067,20.2255281 20.4666067,19.9213483 C20.4666067,19.5237303 20.6514607,19.3247191 20.9164045,19.3247191 C21.4062472,19.3247191 21.6448989,20.0131685 21.9640449,20.0131685 C22.136764,20.0131685 22.3220225,19.8550112 22.3220225,19.6163596 C22.3220225,18.609573 20.3869213,18.755191 20.3869213,17.3378427 C20.3869213,16.953573 20.5187865,16.4766742 20.876764,15.8149213 Z M27.1949663,19.6960449 C27.1949663,20.0265169 27.3017528,20.4107865 27.6330337,20.4107865 C27.9113258,20.4107865 28.1499775,19.9876854 28.1499775,19.5237303 C28.1499775,18.9938427 28.0569438,18.5828764 28.0569438,18.3705169 C28.0569438,18.2782921 28.0969888,18.2386517 28.1499775,18.2386517 C28.3489888,18.252 28.5342472,18.7948315 28.7466067,18.7948315 C28.9852584,18.7948315 29.340809,18.3571685 29.486427,18.3571685 C29.5260674,18.3571685 29.5390112,18.4105618 29.5390112,18.4235056 C29.5390112,18.6225169 29.2340225,19.0601798 29.2340225,19.2320899 C29.2340225,19.3777079 30.0033708,19.404 30.0033708,19.5366742 C30.0033708,19.7356854 29.1972135,19.7356854 28.8129438,19.908 C28.4420225,20.0665618 28.2159101,20.2651685 28.2159101,20.5305169 C28.2159101,20.7954607 28.4812584,20.8480449 28.8525843,20.8480449 C29.7380225,20.8480449 30.3605393,20.3715506 30.5591461,20.3715506 C30.5987865,20.3715506 30.6250787,20.3978427 30.6250787,20.4374831 C30.6250787,20.5701573 30.1748764,21.0070112 30.1748764,21.2060225 C30.1748764,21.4309213 30.996809,21.6950562 30.9834607,21.8281348 C30.9701124,21.8677753 30.9171236,21.8807191 30.8244944,21.8807191 C30.6780674,21.8807191 30.4531685,21.8410787 30.2804494,21.8410787 C30.1748764,21.8410787 30.0818427,21.8540225 30.0417978,21.9070112 C29.9499775,22.0133933 30.0684944,22.7155955 29.8840449,22.7155955 C29.7113258,22.7155955 29.2607191,21.1526292 28.2430112,21.1526292 C28.0969888,21.1526292 27.9910112,21.2719551 27.9910112,21.4705618 C27.9910112,22.0000449 28.5079551,22.6092135 28.9986067,22.9008539 C29.2206742,23.0468764 29.5924045,23.1924944 29.5924045,23.2725843 C29.5924045,23.4307416 28.7466067,23.2855281 28.7466067,23.5500674 C28.7466067,23.7887191 28.8525843,24.1471011 28.8525843,24.3582472 C28.8525843,24.4245843 28.839236,24.5034607 28.7599551,24.5034607 C28.6009888,24.5034607 28.2159101,23.7753708 28.0306517,23.7753708 C27.8716854,23.7753708 27.5270562,24.2122247 27.3806292,24.2122247 C27.3413933,24.2122247 27.3146966,24.1725843 27.3146966,24.1333483 C27.3146966,23.8283596 27.8053483,23.1399101 27.8053483,22.464 C27.8053483,22.1460674 27.7657079,21.4572135 27.3806292,21.4572135 C27.0626966,21.4572135 26.7047191,21.9604045 26.5453483,22.464 C26.4531236,22.755236 26.5186517,23.8813483 26.3066966,23.8813483 C26.1080899,23.8813483 26.1610787,23.1265618 25.8957303,23.1265618 C25.6999551,23.1265618 25.2756404,23.4837303 25.1300225,23.4837303 C25.1029213,23.4837303 25.0766292,23.470382 25.0766292,23.4440899 C25.0766292,23.2855281 25.4613034,22.7685843 25.4613034,22.6626067 C25.4613034,22.464 24.586382,22.4377079 24.586382,22.2787416 C24.586382,22.1857079 24.9310112,22.1197753 25.2489438,22.066382 C25.9228315,21.9470562 26.9166742,21.4572135 26.9166742,20.768764 C26.9166742,20.0006292 26.174427,19.6689438 25.6866067,19.3510112 C25.4346067,19.1920449 25.1563146,19.0601798 25.1563146,18.9542022 C25.1563146,18.8478202 25.4742472,18.8478202 25.6073258,18.8478202 C25.8059326,18.8478202 26.0021124,18.8344719 26.0021124,18.6759101 C26.0021124,18.5561798 25.9754157,18.3183371 25.9754157,18.1326742 C25.9754157,18 25.9883596,17.8940225 26.0421573,17.8940225 C26.240764,17.8940225 26.5186517,18.543236 26.6521348,18.543236 C26.8636854,18.543236 27.1553258,18.0133483 27.3547416,18.0133483 C27.4202697,18.0133483 27.4469663,18.0533933 27.4469663,18.1723146 C27.4469663,18.6621573 27.1949663,19.2183371 27.1949663,19.6960449 Z" id="Fill-14"></path>
                <path d="M21.2610337,23.3644045 C21.8710112,23.4440899 22.0174382,23.6556404 22.0174382,23.8283596 C22.0174382,24.12 21.7516854,24.2122247 21.4992809,24.2122247 C21.314427,24.2122247 21.1020674,24.1725843 20.876764,24.1725843 C20.5851236,24.1725843 20.2938876,24.2389213 20.0556404,24.516809 C20.2275506,24.5435056 20.4795506,24.663236 20.4795506,24.9281798 C20.4795506,25.6963146 18.3466517,25.0596404 18.3466517,27.034382 C18.3466517,28.0804045 19.4331236,29.2202697 21.0749663,29.2202697 C21.924,29.2202697 22.4676404,28.9419775 22.4676404,28.6236404 C22.4676404,28.3724494 22.0174382,28.5435506 22.0174382,28.332 C22.0174382,28.2397753 22.176,28.0666517 22.176,27.9202247 C22.176,27.8563146 22.1230112,27.7361798 22.0174382,27.7361798 C21.7779775,27.7361798 21.3273708,28.1196404 20.4132135,28.1196404 C19.6976629,28.1196404 18.9954607,27.7102921 18.9954607,27.1533034 C18.9954607,27.034382 19.0488539,26.9676404 19.1281348,26.9676404 C19.2078202,26.9676404 19.3133933,27.0210337 19.406427,27.0210337 C19.4861124,27.0210337 19.4990562,26.9676404 19.4990562,26.8220225 C19.4990562,26.676 19.4990562,26.2654382 19.7502472,26.2654382 C20.0026517,26.2654382 20.4795506,27.1929438 22.3086742,27.1929438 C22.9158202,27.1929438 24.0957303,27.074427 24.5333933,26.676 C24.5200449,28.1333933 23.3797753,30.0539326 20.9960899,30.0539326 C18.5189663,30.0539326 17.1942472,28.0666517 17.1942472,26.2383371 C17.1942472,24.2122247 18.8494382,22.3713708 21.1154157,22.3713708 C21.6978876,22.3713708 22.1889438,22.569573 22.1889438,22.821573 C22.1889438,23.1666067 21.3273708,22.9542472 21.2610337,23.3644045 Z M25.3286292,24.0674157 C25.4212584,24.2122247 25.4613034,24.3582472 25.4613034,24.4905169 C25.4613034,24.8618427 25.2093034,25.2060674 25.2093034,25.5907416 C25.2093034,26.0275955 25.5413933,26.3843596 26.0421573,26.3843596 C26.5853933,26.3843596 26.9567191,25.9483146 26.9567191,25.4309663 C26.9567191,24.7291685 26.3204494,24.1333483 25.3286292,24.0674157 Z M20.9431011,24.9148315 C21.0749663,25.0466966 21.1154157,25.1793708 21.1154157,25.3120449 C21.1154157,25.5106517 21.0227865,25.7230112 21.0227865,25.9483146 C21.0227865,26.2654382 21.2610337,26.5437303 21.6052584,26.5437303 C21.9769888,26.5437303 22.2293933,26.2516854 22.2293933,25.9086742 C22.2293933,25.4050787 21.7108315,24.9148315 20.9431011,24.9148315 Z M22.7038652,22.6626067 C24.0957303,22.9275506 24.8509213,23.974382 24.8509213,24.9544719 C24.8509213,25.630382 24.4274157,26.2516854 23.684764,26.2516854 C23.0084494,26.2516854 22.5206292,25.7889438 22.5206292,25.0466966 C22.5206292,24.4905169 22.9550562,23.9076404 22.9550562,23.3377079 C22.9550562,23.1132135 22.8891236,22.8879101 22.7038652,22.6626067 Z M23.3931236,24.4245843 C23.3931236,24.6098427 23.5257978,24.7558652 23.7114607,24.7558652 C23.9234157,24.7558652 24.0560899,24.5702022 24.0560899,24.3582472 C24.0560899,24.0803596 23.8040899,23.6960899 23.5654382,23.6960899 C23.4590562,23.6960899 23.4991011,23.8550562 23.4724045,24.0273708 C23.4590562,24.159236 23.3931236,24.3182022 23.3931236,24.4245843 Z" id="Fill-15"></path>
                <path d="M8.77024719,10.7943371 C9.22044944,10.7943371 9.73617978,8.35685393 9.73617978,7.94588764 C9.73617978,7.83991011 9.69734831,7.76022472 9.60431461,7.76022472 C9.19334831,7.76022472 8.62422472,10.0787865 8.62422472,10.5957303 C8.62422472,10.6883596 8.65051685,10.7943371 8.77024719,10.7943371 Z M12.0155056,11.5228315 C12.346382,11.5228315 12.7173034,10.2506966 12.7173034,9.45586517 C12.7173034,9.28355056 12.6906067,9.09869663 12.6109213,9.09869663 C12.3326292,9.09869663 11.8690787,10.4100674 11.8690787,11.1252135 C11.8690787,11.4035056 11.9358202,11.5228315 12.0155056,11.5228315 Z M9.85510112,10.3437303 C10.0011236,10.3437303 10.1867865,10.1843596 10.5318202,9.80089888 C10.5581124,9.62858427 10.5581124,9.46921348 10.5581124,9.27060674 C10.5581124,9.00606742 10.4521348,8.71442697 10.2931685,8.71442697 C9.89514607,8.71442697 9.69734831,9.77420225 9.69734831,10.0528989 C9.69734831,10.2110562 9.77622472,10.3437303 9.85510112,10.3437303 Z M11.6704719,9.80089888 C11.6704719,9.57519101 11.6170787,9.52220225 11.5644944,9.52220225 C11.4318202,9.52220225 11.2866067,9.68157303 11.0746517,10.0391461 C11.1009438,10.5160449 11.1806292,10.728 11.3128989,10.728 C11.4585169,10.728 11.6704719,10.2640449 11.6704719,9.80089888 Z M12.6906067,8.23752809 C13.5651236,8.23752809 13.9619326,8.9927191 13.9619326,9.84053933 C13.9619326,10.2110562 13.856764,10.7546966 13.6844494,10.7546966 C13.5121348,10.7546966 13.5388315,10.4497079 13.5121348,10.1714157 C13.4858427,9.8138427 13.4191011,9.7345618 13.2997753,9.7345618 C13.0744719,9.7345618 12.9292584,10.2640449 12.9292584,10.7546966 C12.9292584,11.0588764 12.9822472,11.4035056 13.2200899,11.4035056 C13.352764,11.4035056 13.4720899,11.3371685 13.5517753,11.2578876 C13.4987865,11.8666517 13.0477753,12.3973483 12.4119101,12.3973483 C11.2465618,12.3973483 10.8093034,11.0325843 10.6774382,10.2377528 C9.97483146,10.9795955 9.32642697,11.5228315 8.16026966,11.5228315 C7.07460674,11.5228315 6.58395506,10.728 6.58395506,9.97321348 C6.58395506,9.74750562 6.66364045,9.16503371 6.94193258,9.16503371 C7.27321348,9.16503371 6.98157303,10.2506966 7.63038202,10.2506966 C7.78975281,10.2506966 8.08058427,10.1180225 8.23995506,9.68157303 C8.33258427,9.41622472 8.38557303,9.13874157 8.38557303,8.89968539 C8.38557303,8.54170787 8.30629213,8.31721348 8.04175281,8.31721348 C7.81604494,8.31721348 7.53775281,8.4887191 7.4451236,8.58175281 C7.76346067,7.62795506 8.53159551,7.13811236 9.37820225,7.13811236 C10.4258427,7.13811236 10.981618,8.06521348 10.981618,9.09869663 C10.981618,9.24391011 10.9682697,9.4028764 10.9419775,9.54889888 C11.3921798,8.80705618 12.0155056,8.23752809 12.6906067,8.23752809 Z" id="Fill-16"></path>
                <path d="M10.2134831,11.8003146 C9.64395506,11.8003146 9.61766292,12.490382 9.61766292,13.8802247 C9.19334831,12.9664719 8.49195506,11.9859775 7.67042697,11.9859775 C7.11424719,11.9859775 6.90269663,12.3573034 6.90269663,13.0057079 C6.90269663,13.138382 6.91564045,13.3373933 6.94193258,13.4559101 C7.00826966,13.2314157 7.22062921,13.138382 7.48476404,13.138382 C8.05510112,13.138382 8.74355056,13.575236 9.19334831,14.1718652 C8.67721348,14.079236 8.17361798,13.9862022 7.75011236,13.9862022 C7.48476404,13.9862022 7.24651685,14.0128989 7.04791011,14.1055281 C6.66364045,14.2774382 6.14710112,14.8473708 6.14710112,15.7085393 C6.14710112,15.8412135 6.16085393,15.986427 6.18714607,16.1453933 C6.65029213,15.1119101 7.88238202,14.6483596 8.67721348,14.6483596 C8.83658427,14.6483596 8.95510112,14.6617079 9.04813483,14.6750562 C8.63716854,15.045573 8.54494382,15.695191 8.51824719,16.1320449 C8.50530337,16.344 8.42561798,16.3577528 8.27959551,16.3577528 C8.27959551,16.7942022 8.62422472,17.4438202 8.62422472,17.7746966 C8.62422472,17.8940225 8.55788764,18 8.49195506,18.0266966 C8.49195506,18.609573 9.07442697,19.0334831 9.07442697,19.404 C9.07442697,19.4966292 9.04813483,19.5763146 9.00768539,19.6163596 C9.04813483,19.8550112 9.68885393,20.2558652 9.77177528,20.4568989 C9.87370787,20.7012135 9.98817978,20.7424719 10.0545169,20.7424719 C10.2798202,20.7424719 10.6369888,20.4771236 10.6369888,20.2384719 C10.6369888,20.159191 10.5706517,20.0665618 10.5184719,20.0265169 C10.2664719,19.8416629 10.1337978,19.4440449 10.0278202,19.1795056 C9.93438202,19.1795056 9.81505618,19.1402697 9.77298876,18.9841348 C9.70058427,18.7098876 9.69734831,18.1990112 9.59096629,17.8940225 C9.41865169,17.854382 9.33896629,17.7880449 9.33896629,17.4308764 C9.33896629,17.2585618 9.44534831,16.5826517 9.44534831,16.344 C9.36566292,16.344 9.26008989,16.2910112 9.26008989,16.1320449 C9.26008989,15.7085393 9.684,15.3772584 9.80251685,14.834427 C10.5581124,15.3902022 10.7429663,15.9597303 10.7429663,16.4637303 C10.7429663,16.7278652 10.7033258,16.9798652 10.6503371,17.2189213 C11.2069213,16.9402247 12.0413933,16.5296629 12.0413933,15.695191 C12.0413933,15.2045393 11.8164944,14.6617079 10.3194607,14.4497528 C10.7826067,14.2774382 11.3662921,14.1852135 11.8557303,14.1852135 C12.7039551,14.1852135 13.1937978,14.4497528 13.2997753,15.045573 C13.4720899,14.7810337 13.604764,14.4760449 13.604764,14.1981573 C13.604764,13.5485393 13.0611236,13.1254382 12.3726742,13.1254382 C11.5644944,13.1254382 10.8493483,13.5485393 10.080809,14.0658876 C10.4258427,13.3507416 10.6632809,12.9268315 11.088,12.9268315 C11.1539326,12.9268315 11.2202697,12.9401798 11.2866067,12.9535281 C11.1276404,12.3706517 10.5318202,11.8003146 10.2134831,11.8003146" id="Fill-17"></path>
                <path d="M32.5318652,21.351236 C33.1948315,21.351236 33.7251236,22.212 33.7251236,23.219191 C33.7251236,24.2919101 33.2211236,25.4576629 32.3227416,26.2516854 C32.3093933,24.4638202 30.1210787,25.0337528 30.1210787,23.7357303 C30.1210787,23.1795506 30.5195056,22.8082247 30.996809,22.8082247 C31.4211236,22.8082247 31.7524045,22.9275506 31.9910562,23.1666067 C31.7524045,22.9408989 31.6330787,22.6225618 31.6330787,22.318382 C31.6330787,21.814382 31.9514157,21.351236 32.5318652,21.351236" id="Fill-18"></path>
                <path d="M20.7040449,8.76741573 C21.0490787,9.09869663 21.3532584,9.24391011 21.7245843,9.24391011 C21.8710112,9.24391011 22.0437303,9.20467416 22.136764,9.20467416 C22.2560899,9.20467416 22.3349663,9.25725843 22.3349663,9.34988764 C22.3349663,9.49591011 22.2022921,9.7345618 22.0437303,9.86723596 C22.2022921,9.93316854 22.3750112,9.95986517 22.5606742,9.95986517 C23.3134382,9.95986517 24.1750112,9.4825618 24.1750112,8.29092135 C24.334382,8.50206742 24.4274157,8.93973034 24.4274157,9.13874157 C24.4274157,10.582382 23.366427,11.1385618 22.3883596,11.1385618 C21.7516854,11.1385618 21.4329438,10.9262022 21.3532584,10.9262022 C21.1020674,10.9262022 21.1154157,11.4302022 20.9431011,11.4168539 C20.6381124,11.3638652 20.3606292,10.6883596 20.3606292,9.97321348 C20.3606292,9.54889888 20.4666067,9.09869663 20.7040449,8.76741573 Z M22.7038652,7.80026966 C22.5978876,7.62795506 22.2022921,7.53573034 22.0174382,7.53573034 C21.4329438,7.53573034 21.0357303,7.94588764 20.9564494,8.31721348 C20.9034607,8.18453933 20.8634157,8.02557303 20.8634157,7.86660674 C20.8634157,7.28373034 21.2610337,6.56858427 22.2293933,6.56858427 C23.0747865,6.56858427 23.4060674,7.01878652 23.5257978,7.01878652 C23.6580674,7.01878652 23.7907416,6.88611236 23.8971236,6.88611236 C24.0431461,6.88611236 24.0431461,7.11141573 24.0431461,7.27078652 C24.0431461,7.80026966 23.8040899,8.71442697 23.2074607,9.04570787 C23.1010787,8.82040449 22.8891236,8.56840449 22.5469213,8.4098427 C22.4546966,8.37020225 22.4146517,8.29092135 22.4146517,8.21123596 C22.4146517,8.06521348 22.5469213,7.87955056 22.7038652,7.80026966 Z" id="Fill-19"></path>
                <path d="M11.4981573,4.91258427 C11.4981573,5.37613483 13.1537528,7.64130337 13.4720899,7.64130337 C13.7374382,7.64130337 13.9356404,7.17775281 13.9356404,6.77973034 C13.9356404,6.6745618 13.9089438,6.56858427 13.856764,6.48889888 C13.6181124,6.15761798 11.9358202,4.83289888 11.5644944,4.83289888 C11.5244494,4.83289888 11.4981573,4.87294382 11.4981573,4.91258427 Z M1.76197753,3.54822472 C1.76197753,3.81357303 0.755595506,4.70062921 0.398426966,4.70062921 C0.266157303,4.70062921 0.22611236,4.54206742 0.22611236,4.39644944 C0.22611236,4.13191011 0.345033708,3.76058427 0.491460674,3.64085393 C0.662966292,3.48188764 1.06058427,3.40341573 1.36516854,3.40341573 C1.55002247,3.40341573 1.76197753,3.44224719 1.76197753,3.54822472 Z M13.856764,4.31676404 C13.856764,3.52152809 11.7072809,2.07788764 11.6838202,1.45577528 C11.6813933,1.39874157 11.7125393,1.34211236 11.7606742,1.29155056 C12.128764,0.903235955 13.6577528,0.620089888 13.6577528,0.289213483 C13.6577528,0.117707865 13.3390112,0.117707865 13.1804494,0.117707865 C11.948764,0.117707865 10.1471461,0.567910112 10.1471461,1.00476404 C10.1471461,1.45577528 11.7631011,2.55519101 11.7631011,3.09842697 C11.7631011,3.24404494 11.6704719,3.29703371 11.5244494,3.29703371 C11.0746517,3.29703371 10.0941573,2.75339326 9.63101124,2.75339326 C9.41865169,2.75339326 9.33896629,2.89901124 9.33896629,3.11177528 C9.33896629,3.74723596 10.0941573,4.95262921 10.0941573,5.30939326 C10.0941573,5.3494382 10.080809,5.40242697 10.0278202,5.40242697 C9.78916854,5.40242697 8.66426966,4.07851685 8.2658427,4.07851685 C8.12062921,4.07851685 8.1072809,4.2767191 8.1072809,4.56835955 L8.1072809,5.0185618 C8.1072809,5.32314607 8.09393258,5.50880899 7.9491236,5.50880899 C7.60408989,5.50880899 7.4451236,4.54206742 7.11424719,4.54206742 C6.76961798,4.54206742 6.7032809,6.26359551 6.37280899,6.26359551 C5.98813483,6.26359551 6.31941573,4.36934831 5.94849438,4.36934831 C5.53793258,4.36934831 5.07397753,5.62813483 4.78233708,5.62813483 C4.67716854,5.62813483 4.65047191,5.52175281 4.65047191,5.4291236 C4.65047191,5.04525843 4.87496629,4.42274157 4.87496629,4.05222472 C4.87496629,3.8661573 4.82197753,3.76058427 4.66341573,3.76058427 C4.25244944,3.76058427 3.35164045,4.42274157 3.00741573,4.42274157 C2.95483146,4.42274157 2.88849438,4.39644944 2.88849438,4.34305618 C2.88849438,4.02593258 4.33213483,3.01874157 4.33213483,2.56853933 C4.33213483,2.1308764 2.34444944,2.42292135 2.34444944,1.91892135 C2.34444944,1.49541573 3.76301124,1.0581573 3.76301124,0.620898876 C3.76301124,0.236629213 2.08031461,0.0651235955 1.43150562,0.0651235955 C0.649617978,0.0651235955 0.22611236,0.15694382 0.22611236,0.382247191 C0.22611236,0.726876404 2.00103371,0.833258427 2.00103371,1.1374382 C2.00103371,1.42907865 0.159775281,2.2105618 0.159775281,2.66076404 C0.159775281,3.05838202 2.75582022,2.68705618 2.75582022,3.09842697 C2.75582022,3.54822472 0.491460674,5.49505618 0.491460674,6.14426966 C0.491460674,6.29029213 0.597438202,6.35662921 0.742651685,6.35662921 C1.43150562,6.35662921 3.21896629,5.04525843 3.70961798,5.04525843 C3.88193258,5.04525843 3.8952809,5.25680899 3.8952809,5.44247191 C3.8952809,5.78710112 3.77635955,6.31658427 3.77635955,6.70125843 C3.77635955,7.0054382 3.85564045,7.21739326 4.11977528,7.21739326 C4.61083146,7.21739326 5.06062921,6.38292135 5.39231461,6.38292135 C5.81582022,6.38292135 5.56422472,8.83334831 6.20008989,8.83334831 C6.74292135,8.83334831 6.96822472,6.18431461 7.31244944,6.18431461 C7.65707865,6.18431461 7.93577528,6.95244944 8.25330337,6.95244944 C8.65051685,6.95244944 8.46525843,5.61478652 8.88957303,5.61478652 C9.35231461,5.61478652 10.6774382,7.20444944 11.2732584,7.20444944 C11.4585169,7.20444944 11.5244494,7.05842697 11.5244494,6.87276404 C11.5244494,6.1705618 10.544764,4.58170787 10.544764,4.07851685 C10.544764,3.94624719 10.584,3.90620225 10.729618,3.90620225 C11.2465618,3.90620225 12.7569438,4.62134831 13.4720899,4.62134831 C13.7115506,4.62134831 13.856764,4.48907865 13.856764,4.31676404 Z M12.4786517,1.69402247 C12.4786517,1.93226966 13.3131236,2.44921348 13.6973933,2.44921348 C13.9222921,2.44921348 13.9886292,2.14422472 13.9886292,1.82629213 C13.9886292,1.42907865 13.8171236,1.41573034 13.4720899,1.41573034 C13.035236,1.41573034 12.4786517,1.53505618 12.4786517,1.69402247 Z M9.36566292,0.342606742 C9.36566292,0.262921348 8.96844944,0.183235955 8.42561798,0.183235955 C7.56444944,0.183235955 7.68377528,0.899595506 7.02161798,0.899595506 C6.33276404,0.899595506 6.50426966,0.15694382 5.6301573,0.15694382 C5.10026966,0.15694382 4.61083146,0.249977528 4.61083146,0.368898876 C4.61083146,0.528269663 5.23294382,0.461932584 5.23294382,0.899595506 C5.23294382,1.36274157 3.8952809,1.49541573 3.8952809,1.77370787 C3.8952809,1.86593258 4.00085393,1.90597753 4.13352809,1.90597753 C4.42516854,1.90597753 4.88831461,1.77370787 5.21959551,1.77370787 C5.40525843,1.77370787 5.57757303,1.81294382 5.57757303,1.98525843 C5.57757303,2.31653933 4.86202247,2.91276404 4.86202247,3.17770787 C4.86202247,3.25739326 4.92795506,3.28408989 4.99429213,3.28408989 C5.25964045,3.28408989 5.7098427,2.60817978 6.13375281,2.60817978 C6.83595506,2.60817978 6.37280899,4.10480899 6.75626966,4.10480899 C7.15348315,4.10480899 6.98157303,2.63406742 7.55110112,2.63406742 C8.01546067,2.63406742 8.3592809,3.65420225 8.67721348,3.65420225 C8.75689888,3.65420225 8.82323596,3.58826966 8.82323596,3.49523596 C8.82323596,3.21775281 8.42561798,2.64741573 8.42561798,2.27689888 C8.42561798,2.05159551 8.58458427,1.94521348 8.79653933,1.94521348 C9.1007191,1.94521348 9.51168539,2.1308764 9.73617978,2.1308764 C9.81586517,2.1308764 9.89514607,2.10458427 9.89514607,2.01195506 C9.89514607,1.69402247 8.71725843,1.34979775 8.71725843,0.939235955 C8.71725843,0.528269663 9.36566292,0.528269663 9.36566292,0.342606742 Z" id="Fill-20"></path>
                <path d="M32.8497978,2.48925843 C32.8497978,3.66755056 31.9910562,4.56835955 30.4394157,4.81995506 C30.6121348,4.83289888 30.7711011,4.83289888 30.9304719,4.83289888 C32.7438202,4.83289888 33.407191,4.01217978 33.407191,3.32373034 C33.407191,2.93905618 33.1948315,2.59523596 32.8497978,2.48925843 Z M30.6121348,3.82651685 C30.6121348,2.88606742 28.3619326,2.64741573 28.3619326,2.43586517 C28.3619326,2.26395506 29.6186966,1.97191011 30.2675056,1.9585618 C29.2740674,0.687235955 27.8583371,0.819910112 27.8583371,0.594606742 C27.8583371,0.461932584 28.9185169,0.19658427 29.8973933,0.19658427 C30.7185169,0.19658427 31.4870562,0.382247191 31.4870562,1.00476404 C31.4870562,1.34979775 31.208764,1.70777528 31.208764,2.23685393 C31.208764,2.52849438 31.3539775,2.78008989 31.7390562,2.78008989 C32.150427,2.78008989 32.2426517,2.34323596 32.2426517,1.8788764 C32.2426517,1.49541573 32.1767191,1.20377528 32.1767191,1.01811236 C32.1767191,0.461932584 32.5581573,0.0914157303 33.1017978,0.0914157303 C33.5524045,0.0914157303 33.6587865,0.289213483 34.3217528,0.289213483 C33.9633708,0.501977528 33.8311011,0.886247191 33.8311011,1.07110112 C33.8311011,1.62808989 34.1894831,2.01195506 34.1894831,3.15141573 C34.1894831,5.24346067 32.2297079,5.98530337 29.8306517,5.98530337 C29.1713258,5.98530337 28.4679101,5.93231461 27.7782472,5.82674157 C27.6726742,5.81339326 27.6459775,5.78710112 27.6459775,5.72076404 C27.6459775,5.54844944 28.5876404,5.45541573 28.5876404,4.60840449 C28.5876404,4.2767191 28.4812584,3.95919101 28.4812584,3.84026966 C28.4812584,3.77393258 28.5342472,3.73388764 28.5876404,3.73388764 C28.7862472,3.73388764 29.1842697,4.50202247 29.9236854,4.50202247 C30.1210787,4.50202247 30.6121348,4.43568539 30.6121348,3.82651685 Z M32.7705169,0.899595506 C32.7705169,1.08444944 32.9161348,1.23006742 33.1017978,1.23006742 C33.2874607,1.23006742 33.4334831,1.08444944 33.4334831,0.899595506 C33.4334831,0.713932584 33.2874607,0.567910112 33.1017978,0.567910112 C32.9161348,0.567910112 32.7705169,0.713932584 32.7705169,0.899595506 Z" id="Fill-21"></path>
                <path d="M31.5934382,13.138382 C31.5934382,12.8604944 30.890427,12.8342022 30.8244944,12.0523146 C30.8107416,11.9333933 30.7711011,11.7218427 30.6250787,11.7218427 C30.3868315,11.7218427 30.5720899,12.4503371 30.3071461,12.4503371 C29.6979775,12.4503371 29.4993708,11.2578876 29.2740674,11.2578876 C29.2206742,11.2578876 29.157573,11.2975281 29.157573,11.4564944 C29.157573,11.6025169 29.1842697,11.6951461 29.1842697,11.8666517 C29.1842697,12.0393708 29.1442247,12.1586966 28.9852584,12.1586966 C28.6272809,12.1586966 28.3089438,11.3238202 28.0039551,11.3238202 C27.937618,11.3238202 27.8716854,11.3638652 27.8716854,11.4302022 C27.8716854,11.5891685 28.1366292,11.88 28.1366292,12.0260225 C28.1366292,12.3443596 27.2750562,12.1716404 27.2750562,12.4369888 C27.2750562,12.5563146 27.3939775,12.5955506 27.5529438,12.5955506 C27.8320449,12.5955506 28.2693034,12.4770337 28.4946067,12.4770337 C28.6272809,12.4770337 28.8262921,12.5033258 28.8262921,12.6748315 C28.8262921,12.8604944 28.3489888,13.0987416 28.3489888,13.2710562 C28.3489888,13.3507416 28.4282697,13.3899775 28.4946067,13.3899775 C28.8525843,13.3899775 29.486427,12.7678652 29.9370337,12.7678652 C30.0163146,12.7678652 30.2145169,12.8075056 30.2145169,12.9268315 C30.2145169,13.0987416 29.7643146,13.4029213 29.7643146,13.6549213 C29.7643146,13.7212584 29.804764,13.8005393 29.8840449,13.8005393 C30.1210787,13.8005393 30.4394157,13.178427 30.890427,13.178427 C31.0627416,13.178427 31.3147416,13.244764 31.4478202,13.244764 C31.5537978,13.244764 31.5934382,13.178427 31.5934382,13.138382 Z M31.9380674,19.5629663 C32.150427,18.9012135 32.4157753,18.4368539 32.8497978,17.7217079 C32.4157753,17.4972135 31.2617528,17.0195056 31.2617528,16.2380225 C31.2617528,15.3238652 32.4012135,14.6087191 32.6374382,14.6087191 C32.7438202,14.6087191 32.7705169,14.7017528 32.7705169,14.8740674 C32.7705169,15.3505618 32.5452135,16.1186966 32.5452135,16.5296629 C32.5452135,16.9001798 32.7838652,17.2585618 32.9958202,17.2585618 C33.2211236,17.2585618 33.8440449,16.4637303 33.8440449,15.6818427 C33.8440449,14.2774382 32.6111461,13.8539326 32.2297079,13.8539326 C31.8717303,13.8539326 31.2217079,14.4364045 29.6979775,14.4364045 C26.8507416,14.4364045 26.2011236,11.6158652 26.2011236,10.3833708 C26.2011236,10.330382 26.2140674,10.3170337 26.2274157,10.3170337 C26.2937528,10.3170337 26.5724494,10.6620674 27.4736629,10.6620674 C27.937618,10.6620674 28.3619326,10.5423371 29.0382472,10.5423371 C30.6250787,10.5423371 31.3280899,11.6425618 32.3093933,13.0457528 C32.9027865,13.4162697 34.3217528,14.0128989 34.3217528,15.695191 C34.3217528,17.1788764 32.7438202,18 32.362382,19.5896629 C32.9691236,19.5237303 33.3275056,18.4368539 33.950427,18.4368539 C34.268764,18.4368539 34.414382,18.6888539 34.414382,19.0868764 C34.414382,19.6689438 34.0826966,20.5438652 33.4468315,21.0866966 C33.4597753,21.0337079 33.4597753,20.9669663 33.4597753,20.8876854 C33.4597753,20.5171685 33.3141573,19.9876854 32.8894382,19.9876854 C32.2297079,19.9876854 32.0173483,20.7028315 31.646427,21.2982472 C31.2617528,19.9476404 30.744809,18.7284944 29.8177079,17.9866517 C28.8796854,17.2318652 27.2617079,17.6420225 27.2617079,16.2647191 C27.2617079,15.8933933 27.5003596,15.3639101 27.5003596,14.94 C27.5003596,14.794382 27.4736629,14.6617079 27.3939775,14.5557303 C28.6669213,15.0330337 28.2159101,15.8800449 28.9986067,16.7545618 C29.486427,17.3115506 30.8378427,17.8410337 31.6201348,20.1324944 C31.6330787,20.0665618 31.646427,19.8946517 31.646427,19.7753258 C31.646427,17.8147416 29.051191,15.8933933 28.8262921,15.0985618 C30.3334382,15.2708764 30.5987865,15.6422022 31.3147416,17.6290787 C31.4603596,18.0400449 31.9380674,19.0601798 31.9380674,19.5629663 Z" id="Fill-22"></path>
                <path d="M24.6923596,5.54844944 C23.7640449,5.54844944 23.1544719,5.08530337 23.1544719,4.84624719 C23.1544719,4.72692135 23.2341573,4.64804494 23.3405393,4.64804494 C23.6317753,4.64804494 24.2680449,5.0978427 24.4795955,5.0978427 C24.5333933,5.0978427 24.5730337,5.07195506 24.5730337,4.99226966 C24.5730337,4.75361798 24.3477303,4.35640449 24.3477303,4.15820225 C24.3477303,4.10480899 24.3877753,4.06557303 24.4670562,4.06557303 C24.8246292,4.06557303 25.3553258,4.21119101 25.6340225,4.21119101 C25.7266517,4.21119101 25.7529438,4.15820225 25.7529438,4.10480899 C25.7529438,3.81357303 24.8909663,3.24404494 24.8909663,3.07173034 C24.8909663,2.91276404 25.9624719,2.67370787 25.9624719,2.42292135 C25.9624719,2.15757303 24.5062921,2.34323596 24.5062921,2.09123596 C24.5062921,1.90597753 24.7849888,1.58804494 24.7849888,1.44242697 C24.7849888,1.37608989 24.732,1.34979775 24.6393708,1.34979775 C24.5200449,1.34979775 23.8837753,1.60139326 23.618427,1.60139326 C23.4861573,1.60139326 23.3267865,1.57510112 23.3267865,1.38903371 C23.3267865,1.08444944 23.8437303,0.753573034 24.6527191,0.753573034 C25.9624719,0.753573034 26.744764,1.65438202 26.744764,3.16435955 C26.744764,5.07195506 25.4083146,5.54844944 24.6923596,5.54844944 Z M22.1100674,3.03208989 C22.1100674,2.88606742 21.5923146,2.60817978 21.5923146,2.44921348 C21.5923146,2.42292135 21.6182022,2.40957303 21.6582472,2.40957303 C21.8046742,2.40957303 22.0566742,2.4625618 22.2560899,2.4625618 C22.428,2.4625618 22.4546966,1.7207191 22.5845393,1.7207191 C22.676764,1.7207191 22.8357303,2.42292135 22.9825618,2.42292135 C23.1544719,2.42292135 23.4724045,2.22391011 23.6050787,2.22391011 C23.6317753,2.22391011 23.6580674,2.23685393 23.6580674,2.26395506 C23.6580674,2.35658427 23.3267865,2.71375281 23.3267865,2.81973034 C23.3267865,2.93905618 24.0694382,3.08507865 24.0694382,3.19105618 C24.0694382,3.32373034 23.3134382,3.31038202 23.3134382,3.42970787 C23.3134382,3.52152809 23.5921348,3.89285393 23.5921348,4.01217978 C23.5921348,4.0388764 23.578382,4.05222472 23.5524944,4.05222472 C23.4461124,4.05222472 23.0351461,3.8661573 22.9158202,3.8661573 C22.7697978,3.8661573 22.5339775,4.40939326 22.4146517,4.40939326 C22.3750112,4.40939326 22.3487191,4.35640449 22.3487191,4.29006742 L22.3220225,3.76058427 C22.3220225,3.70759551 22.2957303,3.65420225 22.2293933,3.65420225 C22.0700225,3.65420225 21.7650337,3.64085393 21.6715955,3.64085393 C21.6052584,3.64085393 21.5789663,3.62791011 21.5789663,3.60121348 C21.5789663,3.49523596 22.1100674,3.1247191 22.1100674,3.03208989 Z M21.7245843,5.20341573 C21.9373483,5.20341573 21.9769888,5.72076404 22.0174382,6.02494382 C22.0437303,6.18431461 22.0700225,6.19725843 22.136764,6.19725843 C22.2957303,6.19725843 22.5469213,5.58808989 22.7172135,5.58808989 C22.9684045,5.58808989 23.6451236,6.29029213 24.7716404,6.29029213 C26.3734382,6.29029213 27.8846292,5.16377528 27.8846292,3.17770787 C27.8846292,1.25676404 26.532,0.130651685 24.6652584,0.130651685 C23.7777978,0.130651685 23.1277753,0.567910112 22.7827416,0.567910112 C22.5740225,0.581258427 22.2560899,0.0517752809 22.0963146,0.0517752809 C22.030382,0.0517752809 21.9640449,0.183235955 21.9640449,0.40894382 C21.9640449,0.554966292 21.9640449,1.01811236 21.8046742,1.01811236 C21.4859326,1.01811236 20.2546517,0.104764045 20.2546517,0.435235955 C20.2546517,0.740224719 21.0749663,1.66773034 21.0749663,1.90597753 C21.0749663,2.14422472 20.2675955,2.36993258 20.2675955,2.52849438 C20.2675955,2.81973034 21.1283596,2.8727191 21.1283596,3.24404494 C21.1283596,3.6145618 20.2275506,3.90620225 20.2275506,4.18449438 C20.2275506,4.40939326 21.1283596,4.25083146 21.1283596,4.5287191 C21.1283596,4.80660674 20.4666067,5.73411236 20.4666067,5.99824719 C20.4666067,6.06498876 20.4795506,6.06498876 20.5321348,6.06498876 C20.7837303,6.06498876 21.5389213,5.20341573 21.7245843,5.20341573 Z" id="Fill-23"></path>
                <path d="M15.7243146,28.4646742 C15.7243146,28.584 15.6842697,28.7166742 15.5782921,28.8485393 C15.4330787,28.584 15.0221124,28.4513258 14.8364494,28.4517303 C13.4720899,28.4517303 13.9886292,30.4256629 12.531236,30.4256629 C11.9224719,30.4256629 11.8690787,30.3459775 11.6441798,30.3459775 C11.5511461,30.3459775 11.4981573,30.385618 11.4981573,30.4648989 C11.4981573,30.8099326 11.9884045,31.6573483 13.352764,31.6573483 C14.7171236,31.6573483 16.0288989,30.8232809 16.0288989,29.7885843 C16.0288989,29.6166742 15.9892584,29.4326292 15.909573,29.2469663 C15.9625618,29.1668764 16.0956404,29.1142921 16.2145618,29.1142921 C16.4261124,29.1142921 16.5454382,29.3533483 16.7436404,29.3533483 C16.9564045,29.3533483 17.1153708,29.1939775 17.1153708,28.9820225 C17.1153708,28.8093034 17.0227416,28.6907865 16.8637753,28.6098876 C16.9697528,28.5310112 17.0490337,28.3983371 17.0490337,28.2531236 C17.0490337,28.0270112 16.8900674,27.8162697 16.6247191,27.8162697 C16.5053933,27.8162697 16.4261124,27.8563146 16.3338876,27.9473258 C16.3075955,27.7102921 16.1749213,27.4849888 15.9229213,27.4849888 C15.7243146,27.4849888 15.5782921,27.6306067 15.5782921,27.8563146 C15.5782921,28.0666517 15.7243146,28.2397753 15.7243146,28.4646742" id="Fill-24"></path>
                <path d="M8.46525843,26.0017079 C9.52503371,26.2654382 10.0545169,26.8349663 10.1604944,27.5112809 C10.2664719,28.1596854 10.3987416,28.6907865 10.6503371,28.9549213 C10.981618,29.3266517 11.6308315,29.6559101 12.200764,29.6559101 C12.6776629,29.6559101 13.0611236,29.4989663 13.0611236,29.0613034 C13.0611236,28.584 12.4119101,27.5112809 11.4585169,27.5112809 C11.3662921,27.5112809 11.2465618,27.5250337 11.1142921,27.5250337 C10.9949663,27.5250337 10.8226517,27.4983371 10.7166742,27.4057079 C10.5051236,27.2196404 10.4387865,26.2262022 10.0411685,25.630382 C9.60431461,24.9682247 9.12741573,24.7825618 8.47860674,24.7825618 C8.01546067,24.7825618 7.49811236,25.0337528 7.49811236,25.4050787 C7.49811236,25.630382 7.6174382,25.7889438 8.46525843,26.0017079 Z M12.1611236,28.9682697 C11.7631011,28.9682697 11.1672809,28.5435506 11.1672809,28.3053034 C11.1672809,28.1058876 11.3529438,28.0003146 11.4981573,28.0003146 C11.8298427,28.0003146 12.4252584,28.4116854 12.4252584,28.7563146 C12.4252584,28.8485393 12.3589213,28.9682697 12.1611236,28.9682697 Z" id="Fill-25"></path>
                <path d="M10.9419775,18.6492135 C10.9419775,17.8013933 12.9559551,17.351191 12.9559551,16.3043596 C12.9559551,16.1320449 12.889618,15.8278652 12.7702921,15.6025618 C13.4720899,15.986427 13.9886292,16.6360449 13.9886292,17.1655281 C13.9886292,18.0796854 13.035236,18.5035955 13.035236,19.0735281 C13.035236,19.7356854 14.0549663,19.8416629 14.0549663,20.6627865 C14.0549663,21.3378876 13.0878202,22.1197753 13.0878202,22.9938876 C13.0878202,23.6693933 13.5651236,24.2251685 14.2932135,24.3182022 C14.0549663,24.371191 13.8434157,24.411236 13.6181124,24.411236 C12.2796404,24.411236 10.9023371,23.3122247 10.9023371,22.0000449 C10.9023371,21.351236 11.1806292,20.7825169 11.6037303,20.3715506 C11.9754607,20.6894831 12.346382,20.9010337 12.5846292,20.9010337 C12.7965843,20.9010337 12.889618,20.7954607 12.889618,20.6364944 C12.889618,20.1458427 10.9419775,19.6960449 10.9419775,18.6492135 Z M15.1677303,25.3387416 C14.7134831,25.5462472 14.5322697,25.5106517 14.5322697,25.9750112 C14.5322697,26.1469213 14.4922247,26.3710112 14.4922247,26.4907416 C14.4922247,26.6497079 14.5189213,26.7427416 14.7041798,26.7427416 C15.1810787,26.7427416 15.9362697,25.9349663 15.9362697,25.2457079 C15.9362697,25.0596404 15.8302921,24.981573 15.7109663,24.981573 C15.6045843,24.981573 15.4860674,25.1927191 15.1677303,25.3387416 Z M15.1147416,24.3845393 C15.1147416,23.7887191 13.8826517,23.7753708 13.8826517,22.8745618 C13.8826517,22.6488539 14.0282697,22.2653933 14.3199101,21.8540225 C14.4396404,22.5428764 14.7171236,22.9008539 15.3137528,23.1265618 C16.4920449,23.5630112 16.6514157,24.2251685 16.6514157,24.9281798 C16.6514157,26.1206292 15.8169438,27.6039101 13.6711011,27.6039101 C11.948764,27.6039101 10.7166742,26.0668315 10.7166742,24.768809 C10.7166742,24.411236 10.8093034,24.0140225 11.0346067,24.0140225 C11.233618,24.0140225 11.2995506,24.1725843 11.4585169,24.3311461 C12.0551461,24.9281798 12.7039551,25.0863371 13.6444045,25.0863371 C14.4922247,25.0863371 15.1147416,24.7425169 15.1147416,24.3845393 Z" id="Fill-26"></path>
                <path d="M5.73411236,24.6717303 C5.76647191,24.9484045 5.56867416,25.1979775 5.29240449,25.2303371 C5.01573034,25.2626966 4.76494382,25.0644944 4.73339326,24.7882247 C4.70103371,24.5115506 4.89883146,24.260764 5.17550562,24.2284045 C5.45177528,24.1960449 5.7021573,24.3946517 5.73411236,24.6717303 Z M3.25860674,25.1927191 C3.31442697,25.6449438 3.73631461,25.9879551 4.21280899,25.9349663 C4.3847191,25.9159551 4.54408989,25.8690337 4.65047191,25.8026966 C4.75644944,26.2262022 5.112,26.4988315 5.59253933,26.4357303 C6.08035955,26.3722247 6.41244944,25.9879551 6.35946067,25.4977079 C6.34570787,25.3658427 6.31941573,25.2853483 6.27977528,25.1927191 C6.27977528,25.1927191 6.34449438,25.1862472 6.39303371,25.1769438 C6.87114607,25.0863371 7.19393258,24.7024719 7.15348315,24.2389213 C7.10130337,23.7620225 6.67334831,23.4080899 6.228,23.4631011 C6.0552809,23.4841348 5.89550562,23.5500674 5.78952809,23.6426966 C5.66979775,23.2458876 5.29644944,22.9008539 4.78638202,22.9849888 C4.32566292,23.0614382 4.02107865,23.4521798 4.06719101,23.9476854 C4.07447191,24.0281798 4.09348315,24.12 4.13352809,24.2122247 C4.13352809,24.2122247 4.05505618,24.2239551 4.00166292,24.2316404 C3.61537079,24.2890787 3.19591011,24.6782022 3.25860674,25.1927191 Z" id="Fill-27"></path>
            </g>
        </g>
    </g>
</svg>