<?xml version="1.0" encoding="UTF-8"?>
<svg width="48px" height="48px" viewBox="0 0 48 48" version="1.1" xmlns="http://www.w3.org/2000/svg" xmlns:xlink="http://www.w3.org/1999/xlink" style="background: #FF5D77;">
    <!-- Generator: Sketch 48.2 (47327) - http://www.bohemiancoding.com/sketch -->
    <title>logo_adamsFood</title>
    <desc>Created with Sketch.</desc>
    <defs></defs>
    <g id="Page-1" stroke="none" stroke-width="1" fill="none" fill-rule="evenodd">
        <g id="logo_adamsFood" fill="#FFFFFF">
            <g transform="translate(6.000000, 6.000000)">
                <path d="M20.3634187,2.89270572 C27.6928785,2.89270572 30.93803,35.8984179 27.7213215,35.8984179 C23.8442407,35.8984179 22.6270218,28.521082 18.3250628,28.521082 C15.1292007,28.521082 13.7331972,29.8450063 12.1948021,29.8450063 C7.77642117,29.8450063 13.7074042,2.89270572 20.3634187,2.89270572 Z M19.9263063,16.3665594 C19.1519855,16.3665594 18.5729674,17.9370191 18.5938138,18.6851935 C18.6146602,19.433368 19.2581609,19.3979026 19.9263063,19.3979026 C20.5944518,19.3979026 21.0716669,19.3466257 21.0716669,18.6205343 C21.0716669,17.8944429 20.7006272,16.3665594 19.9263063,16.3665594 Z" id="Combined-Shape"></path>
                <path d="M28.1744661,0 C24.6288081,4.34570188e-16 17.8226288,4.09773477 17.8226288,8.99964667 C17.8226288,13.9015586 23.9348697,15.6894041 26.9288042,15.6894041 C29.9227387,15.6894041 33.6185616,13.611387 33.6185616,9.61267274 C33.6185616,5.61395846 31.7201241,0 28.1744661,0 Z" id="Path-2" stroke="#FF5D77" stroke-width="1.5" fill-opacity="0.5"></path>
                <path d="M9.42364165,1.31473775 C7.68844221,1.31473775 6.31310851,2.75508401 6.31310851,4.3005457 C6.31310851,5.84600738 7.53297739,7.09537924 8.90566112,7.09537924 C10.2783448,7.09537924 12.034214,4.57561244 12.034214,3.56632773 C12.034214,2.55704303 11.1588411,1.31473775 9.42364165,1.31473775 Z" id="Path-3" stroke="#FF5D77" stroke-width="1.5" fill-opacity="0.5"></path>
                <path d="M0,19.5126021 C2.05588623e-16,22.8130496 4.09985474,26.7710427 7.65063599,26.7710427 C11.2014172,26.7710427 14.6562696,22.6687147 14.6562696,19.5126021 C14.6562696,16.3564895 12.1571726,12.995446 7.94849246,12.995446 C3.73981234,12.995446 0,16.2121545 0,19.5126021 Z" id="Path-4" stroke="#FF5D77" stroke-width="1.5" fill-opacity="0.5"></path>
                <path d="M24.0965177,26.0905308 C24.0965177,28.6359139 26.805669,30.8687775 30.2372016,30.8687775 C33.6687343,30.8687775 35.3339746,28.6777834 35.3339746,26.638191 C35.3339746,24.5985985 33.5236927,21.9763662 29.8279582,21.9763662 C26.1322236,21.9763662 24.0965177,23.5451476 24.0965177,26.0905308 Z" id="Path-5" stroke="#FF5D77" stroke-width="1.5" fill-opacity="0.5"></path>
            </g>
        </g>
    </g>
</svg>