<?xml version="1.0" encoding="UTF-8"?>
<svg width="48px" height="48px" viewBox="0 0 48 48" version="1.1" xmlns="http://www.w3.org/2000/svg" xmlns:xlink="http://www.w3.org/1999/xlink" style="background: #FF5D77;">
    <!-- Generator: Sketch 48.2 (47327) - http://www.bohemiancoding.com/sketch -->
    <title>logo_GB</title>
    <desc>Created with Sketch.</desc>
    <defs></defs>
    <g id="Page-1" stroke="none" stroke-width="1" fill="none" fill-rule="evenodd">
        <g id="logo_GB" fill="#FFFFFF" fill-rule="nonzero">
            <g transform="translate(2.000000, 12.000000)" id="Shape">
                <polygon points="42.0923077 20.0769231 41.0307692 19.9384615 41.0307692 22.0153846 39.8307692 22.0153846 39.8307692 19.7076923 38.7230769 19.7076923 38.7230769 23.1692308 44.2153846 23.1692308 44.2153846 22.0153846 42.0923077 22.0153846"></polygon>
                <path d="M41.4923077,14.9076923 C39.7384615,14.9076923 38.6769231,15.7384615 38.6769231,17.1692308 C38.6769231,18.6 39.7384615,19.4769231 41.4923077,19.4769231 C43.9384615,19.4769231 44.3076923,18.0461538 44.3076923,17.1692308 C44.3076923,16.3384615 43.9384615,14.9076923 41.4923077,14.9076923 Z M43.2461538,17.1692308 C43.2461538,17.4461538 43.2461538,18.2769231 41.4923077,18.2769231 C40.8461538,18.2769231 39.7384615,18.1384615 39.7384615,17.1692308 C39.7384615,16.4769231 40.3846154,16.0615385 41.4923077,16.0615385 C43.0153846,16.0615385 43.2461538,16.6153846 43.2461538,17.1692308 Z"></path>
                <path d="M41.4923077,9.96923077 C39.7384615,9.96923077 38.6769231,10.8 38.6769231,12.2307692 C38.6769231,13.6615385 39.7384615,14.5384615 41.4923077,14.5384615 C43.9384615,14.5384615 44.3076923,13.1076923 44.3076923,12.2307692 C44.3076923,11.4 43.9384615,9.96923077 41.4923077,9.96923077 Z M43.2461538,12.2307692 C43.2461538,12.5076923 43.2461538,13.3384615 41.4923077,13.3384615 C40.8461538,13.3384615 39.7384615,13.2 39.7384615,12.2307692 C39.7384615,11.5384615 40.3846154,11.1230769 41.4923077,11.1230769 C43.0153846,11.1230769 43.2461538,11.6769231 43.2461538,12.2307692 Z"></path>
                <path d="M41.4923077,5.16923077 C39.7384615,5.16923077 38.7230769,6.09230769 38.7230769,7.70769231 L38.7230769,9.36923077 L44.2615385,9.36923077 L44.2615385,7.70769231 C44.2153846,6.13846154 43.2,5.16923077 41.4923077,5.16923077 Z M39.7846154,8.26153846 L39.7846154,7.8 C39.7846154,6.83076923 40.3384615,6.36923077 41.4923077,6.36923077 C42.6,6.36923077 43.1538462,6.83076923 43.1538462,7.84615385 L43.1538462,8.30769231 L39.7846154,8.30769231 L39.7846154,8.26153846 Z"></path>
                <path d="M40.2923077,4.8 C41.2153846,4.8 41.7230769,4.33846154 41.9076923,3.41538462 L42.0923077,2.53846154 C42.1846154,2.07692308 42.3230769,1.98461538 42.6461538,1.98461538 C42.7846154,1.98461538 43.2,1.98461538 43.2,2.86153846 C43.2,3.55384615 43.0615385,4.01538462 42.9230769,4.33846154 L42.7846154,4.66153846 L43.9384615,4.66153846 L43.9846154,4.47692308 C44.1692308,4.01538462 44.2615385,3.46153846 44.2615385,2.86153846 C44.2615385,1.56923077 43.6153846,0.830769231 42.5538462,0.830769231 C41.6769231,0.830769231 41.1692308,1.29230769 40.9846154,2.16923077 L40.8,3.04615385 C40.7076923,3.50769231 40.5692308,3.6 40.2461538,3.6 C40.1076923,3.6 39.6923077,3.6 39.6923077,2.72307692 C39.6923077,2.21538462 39.7384615,1.75384615 39.8769231,1.38461538 L39.9692308,1.06153846 L38.8615385,1.06153846 L38.8153846,1.24615385 C38.6769231,1.70769231 38.5846154,2.16923077 38.5846154,2.81538462 C38.6307692,4.06153846 39.2769231,4.8 40.2923077,4.8 Z"></path>
                <path d="M33.1846154,10.8461538 L33.3230769,10.7076923 C34.4769231,9.50769231 35.0307692,8.12307692 35.0307692,6.41538462 C35.0307692,2.67692308 32.7692308,0.6 28.6615385,0.6 L20.4,0.6 L20.4,23.3538462 L28.8,23.3538462 C33.4615385,23.3538462 36.2307692,20.7692308 36.2307692,16.3846154 C36.2307692,13.8923077 35.1230769,11.9538462 33.1846154,10.8461538 Z M28.4769231,9.64615385 L25.1076923,9.64615385 L25.1076923,5.03076923 L28.0153846,5.03076923 C30.0923077,5.03076923 30.2769231,5.76923077 30.2769231,6.83076923 C30.2769231,8.16923077 28.4769231,9.64615385 28.4769231,9.64615385 Z M25.1076923,13.8 L28.8,13.8 C30.6,13.8 31.3846154,14.5846154 31.3846154,16.3846154 C31.3846154,18.3230769 30.6461538,19.0153846 28.6153846,19.0153846 L25.1076923,19.0153846 L25.1076923,13.8 Z"></path>
                <path d="M8.53846154,15.0923077 L13.3846154,15.0923077 L13.3846154,18.6461538 C12.4153846,18.9230769 11.5846154,19.0153846 10.4769231,19.0153846 C5.63076923,19.0153846 4.98461538,15.5538462 4.98461538,12.1384615 C4.98461538,5.72307692 8.35384615,4.98461538 10.9384615,4.98461538 C12.6923077,4.98461538 14.1692308,5.21538462 16.0153846,5.58461538 L17.4,5.86153846 L17.4,1.47692308 L16.6153846,1.2 C14.8615385,0.646153846 13.1538462,0.323076923 10.5230769,0.323076923 C3.83076923,0.323076923 0,4.61538462 0,12.1384615 C0,19.5692308 3.64615385,23.6769231 10.2,23.6769231 C12.6923077,23.6769231 15.0923077,23.2153846 17.3076923,22.2461538 L18,21.9692308 L18,10.6153846 L8.53846154,10.6153846 L8.53846154,15.0923077 Z"></path>
            </g>
        </g>
    </g>
</svg>